<svg xmlns="http://www.w3.org/2000/svg" viewBox="0 0 1200 800" role="img" aria-labelledby="title">
  <title id="title">Voie centrale partagee</title>
  <defs>
    <g id="car-teal">
      <rect x="-58" y="-26" width="116" height="52" rx="16" fill="#0f766e" stroke="#0f172a" stroke-width="3" />
      <rect x="-35" y="-14" width="70" height="13" rx="6" fill="#dbeafe" />
      <rect x="-35" y="4" width="70" height="12" rx="5" fill="#bfdbfe" />
      <circle cx="-36" cy="28" r="7" fill="#111827" />
      <circle cx="36" cy="28" r="7" fill="#111827" />
    </g>
    <g id="car-blue">
      <rect x="-58" y="-26" width="116" height="52" rx="16" fill="#2563eb" stroke="#0f172a" stroke-width="3" />
      <rect x="-35" y="-14" width="70" height="13" rx="6" fill="#dbeafe" />
      <rect x="-35" y="4" width="70" height="12" rx="5" fill="#bfdbfe" />
      <circle cx="-36" cy="28" r="7" fill="#111827" />
      <circle cx="36" cy="28" r="7" fill="#111827" />
    </g>
  </defs>

  <rect width="1200" height="800" fill="#e2e8f0" />
  <rect x="90" y="80" width="1020" height="640" rx="24" fill="#3f3f46" />
  <rect x="430" y="80" width="340" height="640" fill="#52525b" />

  <line x1="90" y1="80" x2="1110" y2="80" stroke="#f8fafc" stroke-width="6" />
  <line x1="90" y1="720" x2="1110" y2="720" stroke="#f8fafc" stroke-width="6" />
  <line x1="430" y1="80" x2="430" y2="720" stroke="#f8fafc" stroke-width="7" stroke-dasharray="34 24" />
  <line x1="770" y1="80" x2="770" y2="720" stroke="#f8fafc" stroke-width="7" stroke-dasharray="34 24" />

  <line x1="600" y1="90" x2="600" y2="710" stroke="#facc15" stroke-width="8" stroke-dasharray="22 16" />

  <g transform="translate(600 648)">
    <use href="#car-teal" />
  </g>
  <g transform="translate(600 245) rotate(180)">
    <use href="#car-blue" />
  </g>
</svg>
