<svg xmlns="http://www.w3.org/2000/svg" viewBox="0 0 1200 750">
  <rect width="1200" height="750" fill="#dbeafe" />
  <rect y="580" width="1200" height="170" fill="#65a30d" />

  <rect x="70" y="280" width="1060" height="330" rx="26" fill="#4b5563" />
  <line x1="600" y1="280" x2="600" y2="610" stroke="#f8fafc" stroke-width="8" />
  <line x1="80" y1="445" x2="1120" y2="445" stroke="#facc15" stroke-width="10" stroke-dasharray="30 24" />

  <rect x="250" y="470" width="250" height="84" rx="16" fill="#0f766e" stroke="#0f172a" stroke-width="7" />
  <rect x="525" y="345" width="300" height="100" rx="18" fill="#0284c7" stroke="#0f172a" stroke-width="8" />
  <rect x="555" y="370" width="70" height="32" rx="6" fill="#e5e7eb" />
  <rect x="640" y="370" width="70" height="32" rx="6" fill="#e5e7eb" />
  <rect x="725" y="370" width="70" height="32" rx="6" fill="#e5e7eb" />
  <circle cx="595" cy="460" r="24" fill="#111827" />
  <circle cx="760" cy="460" r="24" fill="#111827" />

  <path d="M510 520 Q570 500 620 460" fill="none" stroke="#f8fafc" stroke-width="10" stroke-linecap="round" />
  <polygon points="618,438 650,454 620,472" fill="#f8fafc" />

  <rect x="875" y="90" width="230" height="170" rx="18" fill="#ffffff" stroke="#1f2937" stroke-width="10" />
  <text x="990" y="165" text-anchor="middle" font-family="Arial, sans-serif" font-size="34" font-weight="700" fill="#1f2937">
    BUS
  </text>
  <text x="990" y="210" text-anchor="middle" font-family="Arial, sans-serif" font-size="28" fill="#1f2937">
    priorite
  </text>
</svg>
