<svg xmlns="http://www.w3.org/2000/svg" viewBox="0 0 1200 800" role="img" aria-labelledby="title">
  <title id="title">Passage pieton avec intention de traverser</title>
  <defs>
    <g id="car-blue">
      <rect x="-58" y="-26" width="116" height="52" rx="16" fill="#2563eb" stroke="#0f172a" stroke-width="3" />
      <rect x="-35" y="-14" width="70" height="13" rx="6" fill="#dbeafe" />
      <rect x="-35" y="4" width="70" height="12" rx="5" fill="#bfdbfe" />
      <circle cx="-36" cy="28" r="7" fill="#111827" />
      <circle cx="36" cy="28" r="7" fill="#111827" />
    </g>
  </defs>

  <rect width="1200" height="800" fill="#e2e8f0" />
  <rect x="90" y="190" width="1020" height="420" rx="20" fill="#3f3f46" />
  <line x1="90" y1="190" x2="1110" y2="190" stroke="#f8fafc" stroke-width="6" />
  <line x1="90" y1="610" x2="1110" y2="610" stroke="#f8fafc" stroke-width="6" />
  <line x1="90" y1="400" x2="1110" y2="400" stroke="#facc15" stroke-width="8" stroke-dasharray="36 20" />

  <rect x="520" y="235" width="28" height="330" fill="#ffffff" />
  <rect x="560" y="235" width="28" height="330" fill="#ffffff" />
  <rect x="600" y="235" width="28" height="330" fill="#ffffff" />
  <rect x="640" y="235" width="28" height="330" fill="#ffffff" />
  <rect x="680" y="235" width="28" height="330" fill="#ffffff" />

  <g transform="translate(355 400)">
    <use href="#car-blue" />
  </g>

  <g transform="translate(735 315)">
    <circle cx="0" cy="-24" r="10" fill="#7f1d1d" />
    <line x1="0" y1="-14" x2="0" y2="20" stroke="#7f1d1d" stroke-width="6" />
    <line x1="-18" y1="0" x2="18" y2="0" stroke="#7f1d1d" stroke-width="6" />
    <line x1="0" y1="20" x2="-14" y2="44" stroke="#7f1d1d" stroke-width="6" />
    <line x1="0" y1="20" x2="14" y2="44" stroke="#7f1d1d" stroke-width="6" />
  </g>

  <line x1="470" y1="400" x2="510" y2="400" stroke="#fef08a" stroke-width="6" stroke-dasharray="10 10" />
</svg>
