<svg xmlns="http://www.w3.org/2000/svg" viewBox="0 0 1200 800" role="img" aria-labelledby="title">
  <title id="title">Vehicule d urgence arrivant derriere</title>
  <defs>
    <g id="auto-driver">
      <rect x="-58" y="-26" width="116" height="52" rx="16" fill="#0f766e" stroke="#0f172a" stroke-width="3" />
      <rect x="-35" y="-14" width="70" height="13" rx="6" fill="#dbeafe" />
      <rect x="-35" y="4" width="70" height="12" rx="5" fill="#bfdbfe" />
      <circle cx="-36" cy="28" r="7" fill="#111827" />
      <circle cx="36" cy="28" r="7" fill="#111827" />
    </g>
    <g id="auto-emergency">
      <rect x="-60" y="-28" width="120" height="56" rx="16" fill="#dc2626" stroke="#0f172a" stroke-width="3" />
      <rect x="-16" y="-40" width="32" height="10" rx="3" fill="#60a5fa" />
      <rect x="-36" y="-14" width="72" height="14" rx="6" fill="#fee2e2" />
      <rect x="-36" y="4" width="72" height="12" rx="5" fill="#fecaca" />
      <circle cx="-37" cy="30" r="7" fill="#111827" />
      <circle cx="37" cy="30" r="7" fill="#111827" />
      <circle cx="-19" cy="-35" r="4" fill="#ef4444" />
      <circle cx="19" cy="-35" r="4" fill="#3b82f6" />
    </g>
  </defs>

  <rect width="1200" height="800" fill="#dbeafe" />
  <rect x="160" y="70" width="880" height="660" rx="24" fill="#3f3f46" />

  <line x1="160" y1="70" x2="1040" y2="70" stroke="#f8fafc" stroke-width="6" />
  <line x1="160" y1="730" x2="1040" y2="730" stroke="#f8fafc" stroke-width="6" />
  <line x1="600" y1="70" x2="600" y2="730" stroke="#f8fafc" stroke-width="7" stroke-dasharray="34 24" />

  <g transform="translate(500 440)">
    <use href="#auto-driver" />
  </g>
  <g transform="translate(500 595)">
    <use href="#auto-emergency" />
  </g>
  <g transform="translate(500 250)">
    <use href="#auto-driver" />
  </g>
</svg>
