<svg xmlns="http://www.w3.org/2000/svg" viewBox="0 0 1200 800" role="img" aria-labelledby="title">
  <title id="title">Fatigue au volant</title>
  <defs>
    <linearGradient id="night" x1="0" y1="0" x2="0" y2="1">
      <stop offset="0" stop-color="#0f172a" />
      <stop offset="1" stop-color="#1e293b" />
    </linearGradient>
    <linearGradient id="road" x1="0" y1="0" x2="0" y2="1">
      <stop offset="0" stop-color="#2b3447" />
      <stop offset="1" stop-color="#1f2937" />
    </linearGradient>
  </defs>
  <rect width="1200" height="800" fill="url(#night)" />
  <rect x="0" y="350" width="1200" height="450" fill="url(#road)" />
  <line x1="560" y1="350" x2="560" y2="790" stroke="#facc15" stroke-width="10" stroke-dasharray="42 30" />
  <line x1="640" y1="350" x2="640" y2="790" stroke="#facc15" stroke-width="10" stroke-dasharray="42 30" />
  <g transform="translate(260 260)">
    <rect x="0" y="0" width="260" height="140" rx="16" fill="#fef9c3" stroke="#ca8a04" stroke-width="8" />
    </g>
  <g transform="translate(770 525)">
    <rect x="-170" y="-70" width="340" height="130" rx="18" fill="#111827" />
    <circle cx="-80" cy="70" r="30" fill="#0b1220" />
    <circle cx="80" cy="70" r="30" fill="#0b1220" />
    <circle cx="-80" cy="70" r="12" fill="#6b7280" />
    <circle cx="80" cy="70" r="12" fill="#6b7280" />
    <rect x="-130" y="-54" width="160" height="48" rx="10" fill="#334155" />
    <rect x="34" y="-54" width="90" height="48" rx="10" fill="#334155" />
    </g>
  <g transform="translate(930 260)">
    <circle cx="0" cy="0" r="70" fill="#f8fafc" />
    <circle cx="0" cy="0" r="60" fill="#e2e8f0" />
    <path d="M0 0 L0 -38 A38 38 0 0 1 30 26 Z" fill="#ef4444" />
    <circle cx="0" cy="0" r="7" fill="#111827" />
  </g>
  </svg>
