<svg xmlns="http://www.w3.org/2000/svg" viewBox="0 0 1200 760" role="img" aria-labelledby="title">
  <title id="title">Bretelle d acces avec cession de passage avant insertion</title>
  <defs>
    <g id="car-blue">
      <rect x="-62" y="-26" width="124" height="52" rx="16" fill="#2563eb" stroke="#0f172a" stroke-width="4" />
      <rect x="-35" y="-12" width="70" height="12" rx="5" fill="#dbeafe" />
      <rect x="-35" y="4" width="70" height="11" rx="5" fill="#bfdbfe" />
      <circle cx="-38" cy="30" r="8" fill="#111827" />
      <circle cx="38" cy="30" r="8" fill="#111827" />
    </g>
    <g id="car-green">
      <rect x="-62" y="-26" width="124" height="52" rx="16" fill="#0f766e" stroke="#0f172a" stroke-width="4" />
      <rect x="-35" y="-12" width="70" height="12" rx="5" fill="#dbeafe" />
      <rect x="-35" y="4" width="70" height="11" rx="5" fill="#bfdbfe" />
      <circle cx="-38" cy="30" r="8" fill="#111827" />
      <circle cx="38" cy="30" r="8" fill="#111827" />
    </g>
  </defs>

  <rect width="1200" height="760" fill="#dbeafe" />
  <rect y="560" width="1200" height="200" fill="#84cc16" />

  <rect x="290" y="60" width="760" height="640" rx="26" fill="#43444d" />
  <line x1="290" y1="60" x2="1050" y2="60" stroke="#f8fafc" stroke-width="6" />
  <line x1="290" y1="700" x2="1050" y2="700" stroke="#f8fafc" stroke-width="6" />
  <line x1="670" y1="60" x2="670" y2="700" stroke="#f8fafc" stroke-width="8" stroke-dasharray="34 28" />

  <path d="M1050 700 L1180 700 L1060 220 L930 220 Z" fill="#3b3c45" />
  <line x1="930" y1="220" x2="1050" y2="700" stroke="#f8fafc" stroke-width="7" />
  <line x1="1060" y1="220" x2="1180" y2="700" stroke="#f8fafc" stroke-width="7" />
  <line x1="930" y1="400" x2="1120" y2="400" stroke="#f8fafc" stroke-width="6" stroke-dasharray="24 20" />

  <path d="M980 610 Q930 560 900 515 Q875 470 860 430" fill="none" stroke="#f8fafc" stroke-width="7" stroke-dasharray="24 18" />
  <polygon points="852,412 890,430 858,454" fill="#f8fafc" />

  <g transform="translate(520 520)">
    <use href="#car-blue" />
  </g>
  <g transform="translate(520 310)">
    <use href="#car-blue" />
  </g>
  <g transform="translate(965 560) rotate(-18)">
    <use href="#car-green" />
  </g>

  <g transform="translate(885 315)">
    <polygon points="0,-44 44,34 -44,34" fill="#dc2626" stroke="#ffffff" stroke-width="8" />
    <polygon points="0,-26 24,20 -24,20" fill="#ffffff" />
  </g>
</svg>
