<svg xmlns="http://www.w3.org/2000/svg" viewBox="0 0 1200 760" role="img" aria-labelledby="title">
  <title id="title">Voie d acceleration avant insertion sur autoroute</title>
  <defs>
    <g id="car-main">
      <rect x="-62" y="-26" width="124" height="52" rx="16" fill="#2563eb" stroke="#0f172a" stroke-width="4" />
      <rect x="-35" y="-12" width="70" height="12" rx="5" fill="#dbeafe" />
      <rect x="-35" y="4" width="70" height="11" rx="5" fill="#bfdbfe" />
      <circle cx="-38" cy="30" r="8" fill="#111827" />
      <circle cx="38" cy="30" r="8" fill="#111827" />
    </g>
    <g id="car-ramp">
      <rect x="-62" y="-26" width="124" height="52" rx="16" fill="#0f766e" stroke="#0f172a" stroke-width="4" />
      <rect x="-35" y="-12" width="70" height="12" rx="5" fill="#dbeafe" />
      <rect x="-35" y="4" width="70" height="11" rx="5" fill="#bfdbfe" />
      <circle cx="-38" cy="30" r="8" fill="#111827" />
      <circle cx="38" cy="30" r="8" fill="#111827" />
    </g>
  </defs>

  <rect width="1200" height="760" fill="#dbeafe" />
  <rect y="560" width="1200" height="200" fill="#84cc16" />

  <rect x="250" y="70" width="740" height="620" rx="24" fill="#43444d" />
  <line x1="250" y1="70" x2="990" y2="70" stroke="#f8fafc" stroke-width="6" />
  <line x1="250" y1="690" x2="990" y2="690" stroke="#f8fafc" stroke-width="6" />
  <line x1="620" y1="70" x2="620" y2="690" stroke="#f8fafc" stroke-width="8" stroke-dasharray="34 28" />

  <path d="M990 690 L1140 690 L1050 190 L900 190 Z" fill="#3b3c45" />
  <line x1="900" y1="190" x2="990" y2="690" stroke="#f8fafc" stroke-width="7" />
  <line x1="1050" y1="190" x2="1140" y2="690" stroke="#f8fafc" stroke-width="7" />
  <line x1="900" y1="370" x2="1080" y2="370" stroke="#f8fafc" stroke-width="6" stroke-dasharray="24 18" />
  <line x1="930" y1="500" x2="1110" y2="500" stroke="#f8fafc" stroke-width="6" stroke-dasharray="24 18" />

  <g transform="translate(450 540)">
    <use href="#car-main" />
  </g>
  <g transform="translate(450 340)">
    <use href="#car-main" />
  </g>
  <g transform="translate(995 560) rotate(-16)">
    <use href="#car-ramp" />
  </g>
  <g transform="translate(965 420) rotate(-12)">
    <use href="#car-ramp" />
  </g>

  <rect x="48" y="170" width="180" height="150" rx="16" fill="#ffffff" stroke="#1f2937" stroke-width="8" />
  <line x1="115" y1="280" x2="115" y2="200" stroke="#111827" stroke-width="10" />
  <path d="M165 280V240c0-24 16-40 40-40h6" fill="none" stroke="#111827" stroke-width="10" stroke-linecap="round" />
</svg>
