<svg xmlns="http://www.w3.org/2000/svg" viewBox="0 0 1200 760" role="img" aria-labelledby="title">
  <title id="title">Priorite a la circulation principale a l entree d autoroute</title>
  <defs>
    <g id="car-main">
      <rect x="-62" y="-26" width="124" height="52" rx="16" fill="#2563eb" stroke="#0f172a" stroke-width="4" />
      <rect x="-35" y="-12" width="70" height="12" rx="5" fill="#dbeafe" />
      <rect x="-35" y="4" width="70" height="11" rx="5" fill="#bfdbfe" />
      <circle cx="-38" cy="30" r="8" fill="#111827" />
      <circle cx="38" cy="30" r="8" fill="#111827" />
    </g>
    <g id="car-ramp">
      <rect x="-62" y="-26" width="124" height="52" rx="16" fill="#ef4444" stroke="#0f172a" stroke-width="4" />
      <rect x="-35" y="-12" width="70" height="12" rx="5" fill="#fee2e2" />
      <rect x="-35" y="4" width="70" height="11" rx="5" fill="#fecaca" />
      <circle cx="-38" cy="30" r="8" fill="#111827" />
      <circle cx="38" cy="30" r="8" fill="#111827" />
    </g>
  </defs>

  <rect width="1200" height="760" fill="#dbeafe" />
  <rect y="560" width="1200" height="200" fill="#84cc16" />

  <rect x="280" y="60" width="740" height="640" rx="24" fill="#43444d" />
  <line x1="280" y1="60" x2="1020" y2="60" stroke="#f8fafc" stroke-width="6" />
  <line x1="280" y1="700" x2="1020" y2="700" stroke="#f8fafc" stroke-width="6" />
  <line x1="650" y1="60" x2="650" y2="700" stroke="#f8fafc" stroke-width="8" stroke-dasharray="34 28" />

  <path d="M1020 700 L1160 700 L1060 230 L920 230 Z" fill="#3b3c45" />
  <line x1="920" y1="230" x2="1020" y2="700" stroke="#f8fafc" stroke-width="7" />
  <line x1="1060" y1="230" x2="1160" y2="700" stroke="#f8fafc" stroke-width="7" />

  <path d="M1080 640 Q1010 560 960 500 Q925 455 900 410" fill="none" stroke="#f8fafc" stroke-width="7" stroke-dasharray="22 16" />
  <polygon points="892,394 927,412 897,436" fill="#f8fafc" />

  <g transform="translate(520 520)">
    <use href="#car-main" />
  </g>
  <g transform="translate(520 320)">
    <use href="#car-main" />
  </g>
  <g transform="translate(995 555) rotate(-18)">
    <use href="#car-ramp" />
  </g>

  <g transform="translate(915 320)">
    <polygon points="0,-44 44,34 -44,34" fill="#dc2626" stroke="#ffffff" stroke-width="8" />
    <polygon points="0,-26 24,20 -24,20" fill="#ffffff" />
  </g>
</svg>
