<svg xmlns="http://www.w3.org/2000/svg" viewBox="0 0 1200 800" role="img" aria-labelledby="title">
  <title id="title">Distance de securite sous la pluie</title>
  <defs>
    <linearGradient id="sky" x1="0" y1="0" x2="0" y2="1">
      <stop offset="0" stop-color="#0f3a5a" />
      <stop offset="1" stop-color="#2f5f7e" />
    </linearGradient>
    <linearGradient id="road" x1="0" y1="0" x2="0" y2="1">
      <stop offset="0" stop-color="#4b5563" />
      <stop offset="1" stop-color="#374151" />
    </linearGradient>
  </defs>
  <rect width="1200" height="800" fill="url(#sky)" />
  <rect y="250" width="1200" height="550" fill="url(#road)" />
  <line x1="600" y1="260" x2="600" y2="790" stroke="#facc15" stroke-width="10" stroke-dasharray="48 28" />
  <line x1="80" y1="250" x2="80" y2="800" stroke="#f1f5f9" stroke-width="6" />
  <line x1="1120" y1="250" x2="1120" y2="800" stroke="#f1f5f9" stroke-width="6" />
  <g stroke="#7dd3fc" stroke-width="3" opacity="0.45">
    <line x1="110" y1="70" x2="90" y2="130" />
    <line x1="190" y1="40" x2="170" y2="100" />
    <line x1="300" y1="50" x2="280" y2="110" />
    <line x1="450" y1="80" x2="430" y2="140" />
    <line x1="620" y1="30" x2="600" y2="90" />
    <line x1="760" y1="50" x2="740" y2="110" />
    <line x1="900" y1="70" x2="880" y2="130" />
    <line x1="1030" y1="45" x2="1010" y2="105" />
  </g>
  <g transform="translate(600 400)">
    <rect x="-120" y="-44" width="240" height="88" rx="14" fill="#1d4ed8" />
    <rect x="-86" y="-32" width="70" height="38" rx="8" fill="#93c5fd" />
    <rect x="16" y="-32" width="70" height="38" rx="8" fill="#93c5fd" />
    <circle cx="-84" cy="48" r="18" fill="#0f172a" />
    <circle cx="84" cy="48" r="18" fill="#0f172a" />
  </g>
  <g transform="translate(600 650)">
    <rect x="-120" y="-44" width="240" height="88" rx="14" fill="#0f766e" />
    <rect x="-86" y="-32" width="70" height="38" rx="8" fill="#99f6e4" />
    <rect x="16" y="-32" width="70" height="38" rx="8" fill="#99f6e4" />
    <circle cx="-84" cy="48" r="18" fill="#0f172a" />
    <circle cx="84" cy="48" r="18" fill="#0f172a" />
  </g>
  </svg>
