<svg xmlns="http://www.w3.org/2000/svg" viewBox="0 0 1200 800" role="img" aria-labelledby="title">
  <title id="title">Pneu sous-gonfle et risques</title>
  <defs>
    <linearGradient id="bg" x1="0" y1="0" x2="0" y2="1">
      <stop offset="0" stop-color="#eaf2ff" />
      <stop offset="1" stop-color="#f8fbff" />
    </linearGradient>
    <linearGradient id="road" x1="0" y1="0" x2="1" y2="0">
      <stop offset="0" stop-color="#2f3747" />
      <stop offset="1" stop-color="#252b38" />
    </linearGradient>
  </defs>
  <rect width="1200" height="800" fill="url(#bg)" />
  <rect x="0" y="430" width="1200" height="370" fill="url(#road)" />
  <line x1="90" y1="615" x2="1110" y2="615" stroke="#facc15" stroke-width="10" stroke-dasharray="48 28" />
  <g transform="translate(300 430)">
    <rect x="-95" y="-200" width="190" height="190" rx="20" fill="#dbeafe" />
    <circle cx="0" cy="70" r="145" fill="#111827" />
    <circle cx="0" cy="70" r="88" fill="#9ca3af" />
    <circle cx="0" cy="70" r="28" fill="#4b5563" />
    <rect x="-110" y="196" width="220" height="20" rx="8" fill="#94a3b8" opacity="0.45" />
    </g>
  <g transform="translate(900 430)">
    <rect x="-95" y="-200" width="190" height="190" rx="20" fill="#fee2e2" />
    <ellipse cx="0" cy="88" rx="160" ry="128" fill="#111827" />
    <ellipse cx="0" cy="88" rx="98" ry="80" fill="#9ca3af" />
    <circle cx="0" cy="88" r="28" fill="#4b5563" />
    <rect x="-155" y="198" width="310" height="26" rx="10" fill="#ef4444" opacity="0.5" />
    <path d="M-26 -88 L0 -138 L26 -88 Z" fill="#f59e0b" />
    <rect x="-7" y="-116" width="14" height="36" rx="5" fill="#111827" />
    <circle cx="0" cy="-70" r="8" fill="#111827" />
    </g>
  </svg>
