<svg xmlns="http://www.w3.org/2000/svg" viewBox="0 0 1200 800" role="img" aria-labelledby="title">
  <title id="title">Scene numerotee de circulation</title>
  <defs>
    <linearGradient id="bg" x1="0" y1="0" x2="0" y2="1">
      <stop offset="0" stop-color="#dfe6ee" />
      <stop offset="1" stop-color="#cfd8e3" />
    </linearGradient>
    <filter id="shadow" x="-20%" y="-20%" width="140%" height="140%">
      <feDropShadow dx="0" dy="2" stdDeviation="2.5" flood-color="#0f172a" flood-opacity="0.22" />
    </filter>
    <g id="badge">
      <circle cx="0" cy="0" r="14.5" fill="#0f172a" />
      <circle cx="0" cy="0" r="11.5" fill="#ffffff" />
    </g>
    <g id="car-blue" filter="url(#shadow)">
      <rect x="-44" y="-20" width="88" height="40" rx="11" fill="#2563eb" stroke="#0f172a" stroke-width="2.6" />
      <rect x="-22" y="-9" width="44" height="8" rx="4" fill="#dbeafe" />
      <rect x="-22" y="3" width="44" height="7" rx="3.5" fill="#bfdbfe" />
      <circle cx="-25" cy="22" r="4.5" fill="#111827" />
      <circle cx="25" cy="22" r="4.5" fill="#111827" />
    </g>
    <g id="car-red" filter="url(#shadow)">
      <rect x="-44" y="-20" width="88" height="40" rx="11" fill="#ef4444" stroke="#0f172a" stroke-width="2.6" />
      <rect x="-22" y="-9" width="44" height="8" rx="4" fill="#fee2e2" />
      <rect x="-22" y="3" width="44" height="7" rx="3.5" fill="#fecaca" />
      <circle cx="-25" cy="22" r="4.5" fill="#111827" />
      <circle cx="25" cy="22" r="4.5" fill="#111827" />
    </g>
    <g id="car-teal" filter="url(#shadow)">
      <rect x="-44" y="-20" width="88" height="40" rx="11" fill="#0f766e" stroke="#0f172a" stroke-width="2.6" />
      <rect x="-22" y="-9" width="44" height="8" rx="4" fill="#dbeafe" />
      <rect x="-22" y="3" width="44" height="7" rx="3.5" fill="#bfdbfe" />
      <circle cx="-25" cy="22" r="4.5" fill="#111827" />
      <circle cx="25" cy="22" r="4.5" fill="#111827" />
    </g>
    <g id="car-amber" filter="url(#shadow)">
      <rect x="-44" y="-20" width="88" height="40" rx="11" fill="#f59e0b" stroke="#0f172a" stroke-width="2.6" />
      <rect x="-22" y="-9" width="44" height="8" rx="4" fill="#fef3c7" />
      <rect x="-22" y="3" width="44" height="7" rx="3.5" fill="#fde68a" />
      <circle cx="-25" cy="22" r="4.5" fill="#111827" />
      <circle cx="25" cy="22" r="4.5" fill="#111827" />
    </g>
  </defs>

  <rect width="1200" height="800" fill="url(#bg)" />

  <rect x="95" y="88" width="1010" height="624" rx="26" fill="#3f4756" />
  <rect x="425" y="88" width="350" height="624" fill="#4b5565" />
  <rect x="95" y="318" width="1010" height="164" fill="#4b5565" />
  <rect x="468" y="283" width="264" height="234" fill="#344155" />

  <line x1="95" y1="88" x2="1105" y2="88" stroke="#e5e7eb" stroke-width="5" />
  <line x1="95" y1="712" x2="1105" y2="712" stroke="#e5e7eb" stroke-width="5" />
  <line x1="425" y1="88" x2="425" y2="712" stroke="#e5e7eb" stroke-width="4.5" />
  <line x1="775" y1="88" x2="775" y2="712" stroke="#e5e7eb" stroke-width="4.5" />
  <line x1="95" y1="318" x2="1105" y2="318" stroke="#e5e7eb" stroke-width="4.5" />
  <line x1="95" y1="482" x2="1105" y2="482" stroke="#e5e7eb" stroke-width="4.5" />

  <line x1="600" y1="88" x2="600" y2="712" stroke="#facc15" stroke-width="6.5" stroke-dasharray="27 18" />

  <rect x="1068" y="88" width="37" height="624" fill="#60728a" />
  <line x1="1068" y1="88" x2="1068" y2="712" stroke="#dbe3ee" stroke-width="3" />

  <g transform="translate(258 570)">
    <use href="#car-blue" />
  </g>
  <g transform="translate(505 548) rotate(-24)">
    <use href="#car-red" />
  </g>
  <g transform="translate(870 570)">
    <use href="#car-teal" />
  </g>
  <g transform="translate(505 386)">
    <use href="#car-amber" />
  </g>
  <g transform="translate(815 352)">
    <use href="#car-blue" />
  </g>
  <g transform="translate(1086 402) rotate(90)">
    <use href="#car-red" />
  </g>

  <g transform="translate(225 616)">
    <use href="#badge" />
    <text x="0" y="5" text-anchor="middle" font-size="15" font-family="Arial, sans-serif" font-weight="700" fill="#0f172a">1</text>
  </g>
  <g transform="translate(474 628)">
    <use href="#badge" />
    <text x="0" y="5" text-anchor="middle" font-size="15" font-family="Arial, sans-serif" font-weight="700" fill="#0f172a">2</text>
  </g>
  <g transform="translate(837 616)">
    <use href="#badge" />
    <text x="0" y="5" text-anchor="middle" font-size="15" font-family="Arial, sans-serif" font-weight="700" fill="#0f172a">3</text>
  </g>
  <g transform="translate(474 430)">
    <use href="#badge" />
    <text x="0" y="5" text-anchor="middle" font-size="15" font-family="Arial, sans-serif" font-weight="700" fill="#0f172a">4</text>
  </g>
  <g transform="translate(782 396)">
    <use href="#badge" />
    <text x="0" y="5" text-anchor="middle" font-size="15" font-family="Arial, sans-serif" font-weight="700" fill="#0f172a">5</text>
  </g>
  <g transform="translate(1035 522)">
    <use href="#badge" />
    <text x="0" y="5" text-anchor="middle" font-size="15" font-family="Arial, sans-serif" font-weight="700" fill="#0f172a">6</text>
  </g>
</svg>
