<?xml version="1.0" encoding="UTF-8" standalone="no"?>
<!-- Created with Inkscape (http://www.inkscape.org/) -->

<svg
   xmlns:dc="http://purl.org/dc/elements/1.1/"
   xmlns:cc="http://creativecommons.org/ns#"
   xmlns:rdf="http://www.w3.org/1999/02/22-rdf-syntax-ns#"
   xmlns:svg="http://www.w3.org/2000/svg"
   xmlns="http://www.w3.org/2000/svg"
   xmlns:sodipodi="http://sodipodi.sourceforge.net/DTD/sodipodi-0.dtd"
   xmlns:inkscape="http://www.inkscape.org/namespaces/inkscape"
   id="svg17624"
   version="1.1"
   inkscape:version="0.48.4 r9939"
   width="244.48"
   height="244.47874"
   xml:space="preserve"
   sodipodi:docname="D-170-13.svg"><metadata
     id="metadata17630"><rdf:RDF><cc:Work
         rdf:about=""><dc:format>image/svg+xml</dc:format><dc:type
           rdf:resource="http://purl.org/dc/dcmitype/StillImage" /><dc:title></dc:title></cc:Work></rdf:RDF></metadata><defs
     id="defs17628"><inkscape:perspective
       sodipodi:type="inkscape:persp3d"
       inkscape:vp_x="0 : 0.5 : 1"
       inkscape:vp_y="0 : 1000 : 0"
       inkscape:vp_z="1 : 0.5 : 1"
       inkscape:persp3d-origin="0.5 : 0.33333333 : 1"
       id="perspective17632" /><clipPath
       clipPathUnits="userSpaceOnUse"
       id="clipPath17642"><path
         d="m -2,710 501,0 0,-711 -501,0 0,711 z"
         id="path17644"
         inkscape:connector-curvature="0" /></clipPath><clipPath
       clipPathUnits="userSpaceOnUse"
       id="clipPath17648"><path
         d="m 0,708.06 498,0 0,-708 -498,0 0,708 z"
         id="path17650"
         inkscape:connector-curvature="0" /></clipPath><clipPath
       clipPathUnits="userSpaceOnUse"
       id="clipPath17798"><path
         d="m -2,710 501,0 0,-711 -501,0 0,711 z"
         id="path17800"
         inkscape:connector-curvature="0" /></clipPath><clipPath
       clipPathUnits="userSpaceOnUse"
       id="clipPath17804"><path
         d="m 0,708.06 498,0 0,-708 -498,0 0,708 z"
         id="path17806"
         inkscape:connector-curvature="0" /></clipPath><clipPath
       id="Clip0"><path
         inkscape:connector-curvature="0"
         d="m 0,0 212.597,0 0,269.292 L 0,269.292 0,0 z"
         transform="translate(0.923828,0.879883)"
         id="path7" /></clipPath></defs><sodipodi:namedview
     pagecolor="#ffffff"
     bordercolor="#666666"
     borderopacity="1"
     objecttolerance="10"
     gridtolerance="10"
     guidetolerance="10"
     inkscape:pageopacity="0"
     inkscape:pageshadow="2"
     inkscape:window-width="1280"
     inkscape:window-height="1004"
     id="namedview17626"
     showgrid="false"
     inkscape:zoom="2.2322568"
     inkscape:cx="87.83165"
     inkscape:cy="184.39127"
     inkscape:window-x="-8"
     inkscape:window-y="-8"
     inkscape:window-maximized="1"
     inkscape:current-layer="g17634"
     fit-margin-top="0.2"
     fit-margin-left="0.2"
     fit-margin-right="0.2"
     fit-margin-bottom="0.2"
     showguides="true"
     inkscape:guide-bbox="true" /><g
     id="g17634"
     inkscape:groupmode="layer"
     inkscape:label="GG1999P002"
     transform="matrix(1.25,0,0,-1.25,520.63196,449.9637)"><path
       inkscape:connector-curvature="0"
       style="fill:#ffd520;fill-rule:evenodd;stroke:none;fill-opacity:1"
       d="m -323.89737,166.70796 -90.28804,90.288 c -1.43946,1.439 -2.16016,3.3111 -2.16016,5.1832 0,1.8721 0.7207,3.7441 2.16016,5.1836 l 90.28804,90.28804 c 1.4404,1.44043 3.3115,2.16016 5.1836,2.16016 1.8723,0 3.7442,-0.71973 5.1842,-2.16016 l 90.287,-90.28804 c 1.441,-1.4395 2.161,-3.3115 2.161,-5.1836 0,-1.8721 -0.72,-3.7442 -2.161,-5.1832 l -90.287,-90.288 c -1.44,-1.441 -3.3119,-2.16 -5.1842,-2.16 -1.8721,0 -3.7432,0.719 -5.1836,2.16 z"
       id="path11" /><path
       inkscape:connector-curvature="0"
       style="fill:#000000;fill-rule:evenodd;stroke:none"
       d="m -323.0194,167.6272 c 2.3828,-2.382 6.229,-2.382 8.6114,0 l 90.26,90.26 c 2.376,2.3759 2.383,6.2362 0,8.6181 l -90.252,90.25293 c -2.3764,2.37597 -6.2502,2.37597 -8.6262,0 l -90.25296,-90.25293 c -2.38184,-2.3819 -2.37598,-6.2422 0,-8.6181 l 90.25976,-90.26 z"
       id="path13" /><path
       inkscape:connector-curvature="0"
       style="fill:#ffd520;fill-rule:evenodd;stroke:none;fill-opacity:1"
       d="m -321.02825,169.62671 -90.25189,90.2578 c -1.26758,1.2682 -1.27441,3.3424 0,4.6188 l 90.25779,90.25882 c 1.2734,1.26758 3.3496,1.26758 4.6169,0 l 90.2579,-90.25882 c 1.275,-1.2764 1.275,-3.3506 0,-4.6188 l -90.2579,-90.2578 c -1.2731,-1.277 -3.3435,-1.277 -4.6169,0 l -0.006,0 z"
       id="path15-2" /><path
       inkscape:connector-curvature="0"
       style="fill:#000000;fill-rule:evenodd;stroke:none"
       d="m -326.34553,211.49123 15.1721,0 0,39.0753 14.41,0 0,-5.011 0,-0.018 10.526,0 0,4.977 9.9411,0 0,-5.02 10.505,0 0,4.993 10.039,0 0,8.071 -12.733,0 0,7.3921 12.726,0 0,7.9599 -9.977,0 0,4.9161 -10.482,0 0,-4.8897 -9.9421,0 0,4.9326 -10.553,0 0,-4.8213 -14.46,0 0,38.834 -15.1721,0 0,-38.834 -14.4668,0 0,4.8213 -10.5537,0 0,-4.9326 -9.9415,0 0,4.8897 -10.4824,0 0,-4.9161 -9.9765,0 0,-7.9599 12.7255,0 0,-7.3921 -12.7324,0 0,-8.071 10.0459,0 0,-4.993 10.5049,0 0,5.02 9.9336,0 0,-4.977 10.5254,0 0,0.018 0,5.011 14.418,0 0,-39.0753 z m 15.1721,54.5717 16.984,0 0,-7.4424 -16.984,0 0,7.4424 z m -15.1721,-7.4424 -16.9913,0 0,7.4424 16.9913,0 0,-7.4424 z m 37.5841,-0.041 0,7.3603 14.7871,0 0,-7.3603 -14.7871,0 z m -60.048,0 -14.7871,0 0,7.3603 14.7871,0 0,-7.3603 z"
       id="path17" /></g></svg>