<?xml version="1.0" encoding="UTF-8" standalone="no"?>
<!-- Created with Inkscape (http://www.inkscape.org/) -->

<svg
   xmlns:dc="http://purl.org/dc/elements/1.1/"
   xmlns:cc="http://creativecommons.org/ns#"
   xmlns:rdf="http://www.w3.org/1999/02/22-rdf-syntax-ns#"
   xmlns:svg="http://www.w3.org/2000/svg"
   xmlns="http://www.w3.org/2000/svg"
   xmlns:xlink="http://www.w3.org/1999/xlink"
   xmlns:sodipodi="http://sodipodi.sourceforge.net/DTD/sodipodi-0.dtd"
   xmlns:inkscape="http://www.inkscape.org/namespaces/inkscape"
   version="1.0"
   width="179.17751"
   height="239.01875"
   viewBox="0 0 50.923546 62.728318"
   id="svg2"
   xml:space="preserve"
   sodipodi:version="0.32"
   inkscape:version="0.48.4 r9939"
   sodipodi:docname="D-120-25.svg"
   inkscape:output_extension="org.inkscape.output.svg.inkscape"><metadata
   id="metadata86"><rdf:RDF><cc:Work
       rdf:about=""><dc:format>image/svg+xml</dc:format><dc:type
         rdf:resource="http://purl.org/dc/dcmitype/StillImage" /><dc:title></dc:title></cc:Work></rdf:RDF></metadata><sodipodi:namedview
   inkscape:window-height="1004"
   inkscape:window-width="1280"
   inkscape:pageshadow="2"
   inkscape:pageopacity="0.0"
   guidetolerance="10.0"
   gridtolerance="10.0"
   objecttolerance="10.0"
   borderopacity="1.0"
   bordercolor="#666666"
   pagecolor="#ffffff"
   id="base"
   showgrid="false"
   inkscape:zoom="2.0483958"
   inkscape:cx="68.485405"
   inkscape:cy="96.017437"
   inkscape:window-x="-8"
   inkscape:window-y="-8"
   inkscape:current-layer="svg2"
   inkscape:window-maximized="1"
   fit-margin-top="0.2"
   fit-margin-right="0.2"
   fit-margin-bottom="0.2"
   fit-margin-left="0.2" />
 <defs
   id="defs4"><inkscape:perspective
   sodipodi:type="inkscape:persp3d"
   inkscape:vp_x="0 : 316.06299 : 1"
   inkscape:vp_y="0 : 1000 : 0"
   inkscape:vp_z="628.58264 : 316.06299 : 1"
   inkscape:persp3d-origin="314.29132 : 210.70866 : 1"
   id="perspective88" />
  <style
   type="text/css"
   id="style6" />
 
  
  
  
  
  
  
  
  
  
  
  
  
  
  
  
  
  
  
  
  
  
  
  
 
   
   
   
   
   
   
   
   
   
   
   
   
   
   
   
   
   
   
   
   
   
   
   
   
   
   
   
   
   
  <inkscape:perspective
   id="perspective2555"
   inkscape:persp3d-origin="100 : 66.666667 : 1"
   inkscape:vp_z="200 : 100 : 1"
   inkscape:vp_y="0 : 1000 : 0"
   inkscape:vp_x="0 : 100 : 1"
   sodipodi:type="inkscape:persp3d" /><radialGradient
   gradientTransform="matrix(0,2.342476,-2.291353,0,562.9128,1323.77)"
   gradientUnits="userSpaceOnUse"
   xlink:href="#linearGradient2955"
   id="radialGradient14758"
   fy="153.9283"
   fx="-483.50824"
   r="300.00003"
   cy="153.9283"
   cx="-483.50824" /><radialGradient
   gradientTransform="matrix(0,2.342476,-2.291353,0,562.9128,1323.77)"
   gradientUnits="userSpaceOnUse"
   xlink:href="#linearGradient2955"
   id="radialGradient13767"
   fy="153.9283"
   fx="-483.50824"
   r="300.00003"
   cy="153.9283"
   cx="-483.50824" /><radialGradient
   gradientTransform="matrix(0,2.342476,-2.291353,0,562.9128,1323.77)"
   gradientUnits="userSpaceOnUse"
   xlink:href="#linearGradient2955"
   id="radialGradient1357"
   fy="153.9283"
   fx="-483.50824"
   r="300.00003"
   cy="153.9283"
   cx="-483.50824" /><radialGradient
   gradientTransform="matrix(-4.167939e-4,2.182867,-1.884232,-3.599562e-4,1395.597,-309.1214)"
   gradientUnits="userSpaceOnUse"
   xlink:href="#linearGradient2955"
   id="radialGradient1911"
   fy="218.90099"
   fx="225.52438"
   r="300"
   cy="218.90099"
   cx="225.52438" /><clipPath
   id="clip"><path
     id="path10"
     d="m 0,-200 0,800 300,0 0,-800 -300,0 z"
     inkscape:connector-curvature="0" /></clipPath><polygon
   id="star"
   transform="scale(53,53)"
   points="-0.58778525,0.80901699 0,-1 0,-1 0.58778525,0.80901699 -0.95105652,-0.30901699 0.95105652,-0.30901699 " /><radialGradient
   gradientTransform="matrix(-4.167939e-4,2.182867,-1.884232,-3.599562e-4,615.5972,-289.1214)"
   gradientUnits="userSpaceOnUse"
   xlink:href="#linearGradient2955"
   id="radialGradient2961"
   fy="218.90099"
   fx="225.52438"
   r="300"
   cy="218.90099"
   cx="225.52438" /><linearGradient
   id="linearGradient2955"><stop
     id="stop2965"
     offset="0"
     style="stop-color:#ffffff;stop-opacity:0" /><stop
     id="stop2959"
     offset="1"
     style="stop-color:#000000;stop-opacity:0.64583331" /></linearGradient><inkscape:perspective
   id="perspective3396"
   inkscape:persp3d-origin="75 : 50 : 1"
   inkscape:vp_z="150 : 75 : 1"
   inkscape:vp_y="0 : 1000 : 0"
   inkscape:vp_x="0 : 75 : 1"
   sodipodi:type="inkscape:persp3d" /></defs>
 <g
   id="g5591"
   transform="translate(-45.489299,-50.605849)">
  </g><g
   id="g5608"
   transform="translate(-45.489299,-50.605849)">
  </g><g
   id="g5610"
   transform="translate(-45.489299,-50.605849)">
  </g><g
   id="layer2"
   transform="translate(-45.489299,-50.605849)">
  </g><g
   id="g5613"
   transform="translate(-45.489299,-50.605849)">
  </g>
<g
   id="g2558"
   transform="matrix(0.2275431,0.2267662,-0.2267662,0.2275431,74.897167,-62.829649)"
   style="fill:#ffffff;fill-opacity:1;stroke:none" /><path
   inkscape:connector-curvature="0"
   style="fill:#ffd520;fill-rule:evenodd;stroke:none;fill-opacity:1"
   d="m 0.05684145,62.540806 0,-62.34759278 c 0,-1.50776892 1.22189595,-2.73764392 2.73244305,-2.73764392 l 45.3426345,0 c 1.50772,0 2.734785,1.229875 2.734785,2.73764392 l 0,62.34759278 c 0,1.510562 -1.224223,2.731942 -2.734785,2.731942 l -45.3426345,0 c -1.5105471,0 -2.73244305,-1.22138 -2.73244305,-2.731942 z"
   id="path11" /><path
   inkscape:connector-curvature="0"
   style="fill:#000000;fill-rule:evenodd;stroke:none"
   d="m 0.62372845,62.492764 c 0,1.195802 0.96724995,2.163172 2.16381905,2.163172 l 45.3460405,0 c 1.193673,0 2.165659,-0.96737 2.165659,-2.163172 l 0,-62.35228178 c 0,-1.19310192 -0.971989,-2.16347392 -2.165659,-2.16347392 l -45.3460405,0 c -1.1965691,0 -2.16381905,0.970372 -2.16381905,2.16347392 l 0,62.35228178 z"
   id="path15" /><path
   inkscape:connector-curvature="0"
   style="fill:#ffd520;fill-rule:evenodd;stroke:none;fill-opacity:1"
   d="m 1.6274064,15.995993 47.6668836,0 0,46.495242 c 0,0.641598 -0.521517,1.160276 -1.160273,1.160276 l -45.3461215,0 c -0.6414771,0 -1.1604891,-0.518678 -1.1604891,-1.160276 l 0,-46.495242 z"
   id="path17" /><path
   inkscape:connector-curvature="0"
   style="fill:#ffd520;fill-rule:evenodd;stroke:none;fill-opacity:1"
   d="m 1.6471804,15.036361 0,-14.85181978 c 0,-0.638358 0.517623,-1.160489 1.1587551,-1.160489 l 45.3464325,0 c 0.639111,0 1.160987,0.522131 1.160987,1.160489 l 0,14.85181978 -47.6661746,0 z"
   id="path19" /><path
   inkscape:connector-curvature="0"
   style="fill:#000000;fill-rule:evenodd;stroke:none"
   d="m 6.2912364,38.777692 11.0192486,0 0,5.623041 3.536995,0 0,-5.657145 2.131199,0 0,-3.196621 -2.131199,0 0,-13.819295 -3.593872,0 -10.9623716,14.884716 0,2.165304 z"
   id="path21" /><path
   inkscape:connector-curvature="0"
   style="fill:#000000;fill-rule:evenodd;stroke:none"
   d="m 28.50914,43.878857 c 0.09819,0.0572 0.19706,0.110841 0.294899,0.159156 l 0.385422,0.180827 c 0.695952,0.329325 2.43029,0.789741 4.341868,0.789741 2.738871,0 5.142554,-0.921542 7.266648,-2.626075 1.923017,-1.548574 2.954689,-3.740523 2.954689,-6.026259 0,-4.187618 -3.536959,-7.647946 -7.579807,-7.647946 -1.16081,0 -2.301547,0.290388 -3.378053,0.71677 l 0.203634,-4.160404 9.364098,0 0,-3.536995 -12.776182,0 -0.555767,11.68774 3.469318,1.088514 c 0.40105,-1.122263 1.775584,-2.213548 3.575256,-2.213548 2.308118,0 4.122071,1.877473 4.122071,4.058408 0,2.87973 -3.344409,5.101165 -6.83174,5.101165 -1.198644,0 -2.15827,-0.21955 -3.337125,-0.756346 l -1.519229,3.185252 z"
   id="path23" /><path
   inkscape:connector-curvature="0"
   style="fill:#000000;fill-rule:evenodd;stroke:none"
   d="m 17.094026,58.10947 1.575396,0 -0.0017,-3.604459 c 0.116596,-0.36343 0.461091,-0.605361 0.84168,-0.593638 0.412492,0.01279 0.758052,0.316536 0.821892,0.724729 l 0,3.47621 1.549746,0 0,-3.464842 c 0.05098,-0.417785 0.399312,-0.737518 0.821537,-0.751728 0.450646,-0.01597 0.837488,0.321154 0.882926,0.770557 l 0,3.451341 1.548005,0 0,-3.583853 c -0.0042,-0.50056 -0.184557,-0.982291 -0.508589,-1.363129 -0.338597,-0.39718 -0.811838,-0.655453 -1.328064,-0.726505 -0.338243,-0.02453 -0.679646,0.01279 -1.005064,0.107644 -0.328543,0.09699 -0.638365,0.252944 -0.911026,0.458994 -0.312948,-0.319377 -0.722313,-0.528625 -1.164682,-0.595058 -0.540171,-0.08171 -1.091782,0.05542 -1.530989,0.379416 l 0,-0.328614 -1.592413,0 0.0014,5.642935 z"
   id="path25" /><path
   inkscape:connector-curvature="0"
   style="fill:#000000;fill-rule:evenodd;stroke:none"
   d="m 26.924008,59.233864 1.859212,0 5.385444,-9.561797 -1.872392,0 -5.372264,9.561797 z"
   id="path27" /><path
   inkscape:connector-curvature="0"
   style="fill:#ffd520;fill-rule:evenodd;stroke:none;fill-opacity:1"
   d="m 11.063964,35.55798 6.223642,-8.445219 0,8.445219 -6.223642,0 z"
   id="path29" /><path
   inkscape:connector-curvature="0"
   style="fill:#000000;fill-rule:evenodd;stroke:none"
   d="m 13.431446,10.557475 0.08949,0.09404 c 0.398282,0.417713 1.185821,0.772262 1.921669,0.772262 0.780255,0 1.635115,-0.413877 2.155144,-1.091463 0.321615,-0.4190995 0.799013,-1.4890333 0.799013,-3.3312291 0,-1.8023358 -0.454838,-2.8896066 -0.743842,-3.2916886 -0.532888,-0.741426 -1.331866,-1.153562 -2.224526,-1.153562 -0.762563,0 -1.491128,0.325773 -1.988634,0.885697 -0.438851,0.492993 -0.953373,1.504664 -0.953373,3.4828887 0,2.2137613 0.501661,3.134522 0.94506,3.633058 z M 4.3820385,9.1208416 c 0.01009,0.02565 0.02014,0.05098 0.02984,0.076665 l 0.07215,0.165835 c 0.5870299,1.3447274 1.7489049,2.0687454 3.0495439,2.0687454 0.413912,0 0.684513,-0.06242 0.878804,-0.142921 1.023075,-0.403823 1.6749756,-1.395707 1.6749756,-2.4191728 0,-0.641811 -0.1974176,-1.2003848 -0.6164806,-1.717642 C 9.0683984,6.6551661 8.5938074,6.3124122 7.4048624,6.09002 6.9115494,5.996374 6.6096854,5.9679175 6.4143644,5.8135219 6.2384754,5.6761432 6.1149874,5.4322579 6.1149874,5.1474111 c 0,-0.6712978 0.540171,-1.2170468 1.244082,-1.2170468 0.647744,0 1.006449,0.376788 1.227811,0.935007 l 1.245467,-0.429153 c -0.360091,-1.13381 -1.342275,-1.852286 -2.491325,-1.852286 -1.384232,0 -2.579075,1.221559 -2.579075,2.550654 0,0.5470989 0.225164,1.1278765 0.615096,1.5417533 0.291775,0.3091109 0.720927,0.5741697 1.521646,0.7018498 0.286587,0.047889 0.579747,0.059328 0.854504,0.1526548 0.619288,0.209887 1.008865,0.7608228 1.008865,1.3405345 0,0.6591832 -0.592217,1.2458583 -1.255521,1.2458583 -0.770912,0 -1.496351,-0.4482662 -1.866176,-1.3960618 L 4.3820335,9.1208416 z m 17.0021315,2.1298144 1.300674,0 0,-3.7284801 1.611491,0 1.359967,3.7284801 1.41585,0 -1.458162,-3.9793286 c 0.886763,-0.4902219 1.2892,-1.1872047 1.2892,-2.0999718 0,-1.2964823 -0.9322,-2.3463083 -2.450044,-2.4229733 l -3.068976,0 0,8.5022737 z m 19.7988,0 5.194953,0 0,-1.3433418 -3.855627,0 0,-2.3851383 2.452354,0 0,-1.325969 -2.465143,0 0,-2.1128326 3.583498,0 0,-1.334992 -4.910035,0 0,8.5022737 z m -10.297682,0 1.343306,0 0,-7.3077867 1.908844,0 0,-1.194487 -5.173462,0 0,1.203156 1.921312,0 0,7.2991177 z M 14.29462,9.5378447 14.23494,9.4354946 C 14.090279,9.1874527 13.791577,8.3516702 13.791577,6.9913478 c 0,-1.8876335 0.456188,-2.4701515 0.524185,-2.5638335 0.247722,-0.342754 0.688669,-0.572429 1.131002,-0.572429 0.694212,0 1.449493,0.373981 1.628188,2.4559414 l 0.03364,0.6886697 c -0.06626,2.0007479 -0.464537,2.5037948 -0.675845,2.7077845 -0.264703,0.2563905 -0.641811,0.4097561 -1.014406,0.4097561 -0.457965,0 -0.906906,-0.2466922 -1.12372,-0.5793923 z m 8.411362,-3.3374812 0,-2.1298132 1.980995,0 c 0.3813,0 0.895431,0.47459 0.895431,1.0456336 0,0.6067824 -0.450326,1.0543378 -0.929074,1.0841796 l -1.947352,0 z m 13.647704,5.0502925 1.322274,0 0,-8.5022737 -1.322274,0 0,8.5022737 z"
   id="path31" /><path
   inkscape:connector-curvature="0"
   style="fill:#000000;fill-rule:evenodd;stroke:none"
   d="m 35.560037,58.110891 1.549995,0 0,-3.610143 c 5.69e-4,-0.133577 0.10267,-0.245839 0.195393,-0.340338 0.101959,-0.105157 0.241576,-0.165551 0.373732,-0.217063 0.153117,-0.06004 0.56131,-0.108354 0.805373,0.04263 0.190063,0.11759 0.375864,0.301615 0.375153,0.523296 l 0,3.604459 1.604706,0 0,-3.218292 c 0.02237,-0.42489 -0.06395,-0.848004 -0.250103,-1.230618 -0.208892,-0.428797 -0.535731,-0.78903 -0.941792,-1.039488 -0.286694,-0.176563 -0.615308,-0.272839 -0.951739,-0.279944 -0.428087,-0.0085 -0.845516,0.127894 -1.185854,0.387233 l 0,-2.240619 -1.574864,0.629164 0,6.989722 z"
   id="path33" /><path
   inkscape:connector-curvature="0"
   style="fill:#000000;fill-rule:evenodd;stroke:none"
   d="m 10.493276,58.110891 1.536921,0 0,-1.698849 0.710839,-0.773399 0.979414,2.47509 1.683288,0 -1.5355,-3.849943 1.532729,-1.805426 -1.998653,0 -1.369346,1.532232 0,-3.498591 -1.539692,0.602874 0,7.016012 z"
   id="path35" /></svg>