<?xml version="1.0" encoding="UTF-8" standalone="no"?>
<!-- Created with Inkscape (http://www.inkscape.org/) -->

<svg
   xmlns:dc="http://purl.org/dc/elements/1.1/"
   xmlns:cc="http://creativecommons.org/ns#"
   xmlns:rdf="http://www.w3.org/1999/02/22-rdf-syntax-ns#"
   xmlns:svg="http://www.w3.org/2000/svg"
   xmlns="http://www.w3.org/2000/svg"
   xmlns:sodipodi="http://sodipodi.sourceforge.net/DTD/sodipodi-0.dtd"
   xmlns:inkscape="http://www.inkscape.org/namespaces/inkscape"
   version="1.0"
   width="177.56625"
   height="177.56625"
   viewBox="0 0 65.921469 71.709445"
   id="svg2"
   xml:space="preserve"
   inkscape:version="0.48.4 r9939"
   sodipodi:docname="D-030.svg"><metadata
   id="metadata107"><rdf:RDF><cc:Work
       rdf:about=""><dc:format>image/svg+xml</dc:format><dc:type
         rdf:resource="http://purl.org/dc/dcmitype/StillImage" /><dc:title></dc:title></cc:Work></rdf:RDF></metadata><defs
   id="defs105"><inkscape:perspective
     sodipodi:type="inkscape:persp3d"
     inkscape:vp_x="0 : 260 : 1"
     inkscape:vp_y="0 : 1000 : 0"
     inkscape:vp_z="800 : 260 : 1"
     inkscape:persp3d-origin="400 : 173.33333 : 1"
     id="perspective85" /></defs><sodipodi:namedview
   pagecolor="#ffffff"
   bordercolor="#666666"
   borderopacity="1"
   objecttolerance="10"
   gridtolerance="10"
   guidetolerance="10"
   inkscape:pageopacity="0"
   inkscape:pageshadow="2"
   inkscape:window-width="1280"
   inkscape:window-height="1004"
   id="namedview103"
   showgrid="false"
   inkscape:zoom="2.4652076"
   inkscape:cx="42.802867"
   inkscape:cy="86.73479"
   inkscape:window-x="-8"
   inkscape:window-y="-8"
   inkscape:window-maximized="1"
   inkscape:current-layer="svg2"
   fit-margin-top="0.2"
   fit-margin-right="0.2"
   fit-margin-bottom="0.2"
   fit-margin-left="0.2" />
 




<path
   inkscape:connector-curvature="0"
   style="fill:#ffd520;fill-rule:evenodd;stroke:none;fill-opacity:1"
   d="m -2.8132188,68.646775 c 0,1.645673 1.335721,2.981899 2.98189901,2.981899 l 65.58511679,0 c 1.64618,0 2.98089,-1.336226 2.98089,-2.981899 l 0,-65.5854698 c 0,-1.646047 -1.33471,-2.98053597 -2.98089,-2.98053597 l -65.58511679,0 c -1.64617801,0 -2.98189901,1.33448897 -2.98189901,2.98053597 l 0,65.5854698 z"
   id="path29" /><path
   inkscape:connector-curvature="0"
   style="fill:#000000;fill-rule:evenodd;stroke:none"
   d="m -1.8591318,68.643638 c 0,0.559326 0.197885,1.036875 0.594663,1.433653 0.39577003,0.396274 0.87331803,0.593654 1.43314901,0.593654 l 65.58511679,0 c 0.55983,0 1.03738,-0.19738 1.43264,-0.593654 0.39577,-0.396274 0.59416,-0.874327 0.59416,-1.433653 l 0,-65.5857878 c 0,-0.559523 -0.19788,-1.037218 -0.59365,-1.432588 -0.39577,-0.39586 -0.87281,-0.593543 -1.43315,-0.593543 l -65.58511679,0 c -0.55983098,0 -1.03788398,0.197683 -1.43365301,0.593543 -0.396274,0.39586 -0.594159,0.873065 -0.594159,1.432588 l 0,65.5857878 z"
   id="path31" /><path
   inkscape:connector-curvature="0"
   style="fill:#ffd520;fill-rule:evenodd;stroke:none;fill-opacity:1"
   d="m -0.42345877,68.644607 c 0,0.164567 0.05856,0.304904 0.175168,0.422019 0.116611,0.116611 0.257452,0.174663 0.42151498,0.174663 l 65.58562279,0 c 0.16406,0 0.3044,-0.05805 0.4205,-0.174158 0.11661,-0.116611 0.17517,-0.257452 0.17517,-0.422524 l 0,-65.5852768 c 0,-0.164654 -0.058,-0.304657 -0.17466,-0.421 -0.11611,-0.116343 -0.25644,-0.174512 -0.42101,-0.174512 l -65.58562279,0 c -0.16456798,0 -0.30540898,0.05817 -0.42252398,0.175007 -0.116106,0.116338 -0.174159,0.256346 -0.174159,0.420505 l 0,65.5852768 z"
   id="path33" /><path
   inkscape:connector-curvature="0"
   style="fill:#000000;fill-rule:evenodd;stroke:none"
   d="m 46.162212,5.7958562 -1.454856,2.136548 2.209543,0 0.754688,-1.048586 0.738028,1.017541 2.093438,0 -1.356418,-2.105503 -2.984423,0 z"
   id="path35" /><path
   inkscape:connector-curvature="0"
   style="fill:#000000;fill-rule:evenodd;stroke:none"
   d="m 13.238151,62.324879 2.791081,0 c 0.734495,0 1.478077,0 2.194399,-0.175673 1.668894,-0.406875 2.859231,-1.295841 3.58363,-2.407428 0.517428,-0.799615 0.923293,-2.077788 0.923293,-3.389278 0,-2.018726 -0.781442,-3.589183 -1.992981,-4.611923 -0.566899,-0.476539 -1.225168,-0.823846 -1.926346,-1.052524 -0.705721,-0.230043 -1.444759,-0.293649 -2.182283,-0.293649 l -3.366563,0 -0.02423,11.930475 z m 13.752475,-4.791129 1.743101,-4.099543 1.742091,4.099543 -3.485192,0 z m -4.229784,4.796177 2.188342,0 1.188822,-2.789567 5.192956,0 1.176707,2.789567 2.176226,0 -5.047572,-11.924667 -1.806707,0 -5.068774,11.924667 z m 14.41125,0 2.097476,0 0,-9.918461 3.330216,0 0,-2.007672 -8.751851,0 0,2.002119 3.331731,0.0056 -0.0076,9.918461 z m 6.767956,0.0016 8.753365,0 0,-2.003582 -6.673557,0 0,-3.395336 3.56899,0 0,-2.019231 -3.55738,0 -0.01163,-2.492236 6.526658,0 0,-2.006913 -8.587788,0 -0.0187,11.917298 z m -28.624109,-2.051034 0.01211,-0.0028 0,-7.827548 1.687068,0 c 1.237788,0 2.139879,0.43464 2.838533,1.253943 0.384159,0.451298 0.909664,1.37661 0.909664,2.597235 0,1.001034 -0.189303,1.644159 -0.337717,1.952091 -0.519447,1.06464 -1.48262,1.747645 -2.488197,1.900096 -0.516418,0.07926 -0.68149,0.127212 -1.556827,0.127212 l -1.064639,0 z"
   id="path61" /><path
   inkscape:connector-curvature="0"
   style="fill:#000000;fill-rule:evenodd;stroke:none"
   d="m 3.0884882,24.285901 2.466995,0 1.484134,-4.316004 4.6205048,0 1.475048,4.316004 2.451851,0 -5.10512,-14.9066168 -2.3034368,0 -5.089976,14.9066168 z m 16.5011528,-8.854831 0,-3.73482 3.472572,0 c 0.66786,0 1.570456,0.833135 1.570456,1.834371 0,1.062872 -0.790529,1.848656 -1.629519,1.900449 l -3.413509,0 z m -2.318582,8.854831 2.280721,0 0,-6.53635 2.824904,0 2.384711,6.53635 2.48214,0 -2.556346,-6.977098 c 1.555312,-0.858779 2.261033,-2.080868 2.261033,-3.681562 0,-2.273099 -1.635577,-4.1128698 -4.295913,-4.2479568 l -5.38125,0 0,14.9066168 z m 15.229038,-8.854831 0,-3.73482 3.471057,0 c 0.668366,0 1.570962,0.833135 1.570962,1.834371 0,1.062872 -0.791034,1.848656 -1.630024,1.900449 l -3.411995,0 z m -2.318582,8.854831 2.280721,0 0,-6.53635 2.822885,0 2.385216,6.53635 2.482139,0 -2.556346,-6.977098 c 1.555313,-0.858779 2.261034,-2.080868 2.261034,-3.681562 0,-2.273099 -1.635577,-4.1128698 -4.296418,-4.2479568 l -5.379231,0 0,14.9066168 z m 12.908942,0 9.10774,0 0,-2.356442 -6.760384,0 0,-4.179908 4.301466,0 0,-2.325902 -4.322668,0 0,-3.704682 6.282331,0 0,-2.3396828 -8.608485,0 0,14.9066168 z m 14.050817,0 2.354927,0 0,-12.811968 3.345361,0 0,-2.0946488 -9.06988,0 0,2.1094398 3.369592,0 0,12.797177 z m -49.3202138,-6.6256 1.528053,-4.472293 1.5129078,4.472293 -3.0409608,0 z"
   id="path63" /><path
   inkscape:connector-curvature="0"
   style="fill:#000000;fill-rule:evenodd;stroke:none"
   d="m 15.022141,43.311347 1.830937,0 0,-8.145932 4.585673,8.145932 1.579543,0 0,-11.925578 -1.8375,0 0,7.620425 -4.280769,-7.620425 -1.877884,0 0,11.925578 z m 10.680216,0 7.244495,0 0,-1.682524 -5.383774,0 0,-10.243054 -1.860721,0 0,11.925578 z m 8.584759,0 7.285889,0 0,-1.885154 -5.408005,0 0,-3.343848 3.44077,0 0,-1.861478 -3.457428,0 0,-2.961807 5.02637,0 0,-1.873291 -6.887596,0 0,11.925578 z m 12.253197,0 1.484134,0 3.733053,-11.925578 -1.956635,0 -2.515456,8.042898 -2.523029,-8.042898 -1.967236,0 3.745169,11.925578 z m 6.627115,0 7.285889,0 0,-1.885154 -5.408005,0 0,-3.343848 3.440769,0 0,-1.861478 -3.457428,0 0,-2.961807 5.02637,0 0,-1.873291 -6.887595,0 0,11.925578 z m -47.6906948,0 7.2858888,0 0,-1.885154 -5.4080048,0 0,-3.343848 3.4407698,0 0,-1.861478 -3.4574278,0 0,-2.961807 5.0268738,0 0,-1.873291 -6.8880998,0 0,11.925578 z"
   id="path65" /><path
   inkscape:connector-curvature="0"
   style="fill:#000000;fill-rule:evenodd;stroke:none"
   d="m 56.177091,28.573334 -1.179231,1.697315 2.480625,0 1.546226,-1.697315 -2.84762,0 z"
   id="path107" /></svg>