<?xml version="1.0" encoding="UTF-8" standalone="no"?>
<svg
   xmlns:dc="http://purl.org/dc/elements/1.1/"
   xmlns:cc="http://creativecommons.org/ns#"
   xmlns:rdf="http://www.w3.org/1999/02/22-rdf-syntax-ns#"
   xmlns:svg="http://www.w3.org/2000/svg"
   xmlns="http://www.w3.org/2000/svg"
   xmlns:sodipodi="http://sodipodi.sourceforge.net/DTD/sodipodi-0.dtd"
   xmlns:inkscape="http://www.inkscape.org/namespaces/inkscape"
   width="245.26849"
   height="245.25999"
   viewBox="0 0 692.20224 692.17822"
   version="1.1"
   id="svg2"
   inkscape:version="0.48.4 r9939"
   sodipodi:docname="D-070-40.svg">
  <metadata
     id="metadata62">
    <rdf:RDF>
      <cc:Work
         rdf:about="">
        <dc:format>image/svg+xml</dc:format>
        <dc:type
           rdf:resource="http://purl.org/dc/dcmitype/StillImage" />
        <dc:title></dc:title>
      </cc:Work>
    </rdf:RDF>
  </metadata>
  <defs
     id="defs60" />
  <sodipodi:namedview
     pagecolor="#ffffff"
     bordercolor="#666666"
     borderopacity="1"
     objecttolerance="10"
     gridtolerance="10"
     guidetolerance="10"
     inkscape:pageopacity="0"
     inkscape:pageshadow="2"
     inkscape:window-width="1280"
     inkscape:window-height="1004"
     id="namedview58"
     showgrid="false"
     fit-margin-top="0.2"
     fit-margin-left="0.2"
     fit-margin-right="0.2"
     fit-margin-bottom="0.2"
     inkscape:zoom="2.0369931"
     inkscape:cx="57.316666"
     inkscape:cy="129.04112"
     inkscape:window-x="-8"
     inkscape:window-y="-8"
     inkscape:window-maximized="1"
     inkscape:current-layer="svg2" />
  <polygon
     points="315,545 235,375 315,205 395,375 "
     id="polygon10"
     style="fill:none;stroke:#ffffff;stroke-width:40"
     transform="translate(1060.019,21.015495)" />
  <!-- draw the bicycle -->
  <!-- RIGHT -->
  <!-- LANE -->
  <!-- ONLY -->
  <path
     inkscape:connector-curvature="0"
     style="fill:#ffd520;fill-rule:evenodd;stroke:none;fill-opacity:1"
     d="M 326.9072,683.65514 8.525207,365.27318 c -10.61435,-10.58333 -10.61435,-27.77806 0,-38.38928 L 326.9072,8.501929 c 10.58333,-10.583335 27.80665,-10.583335 38.38998,0 L 683.67915,326.8839 c 10.61155,10.61122 10.61155,27.80595 0,38.38928 L 365.29718,683.65514 c -10.61508,10.61155 -27.77913,10.61155 -38.38998,0 z"
     id="path11" />
  <path
     inkscape:connector-curvature="0"
     style="fill:#000000;fill-rule:evenodd;stroke:none"
     d="m 330.93457,679.75302 c 8.40246,8.40669 21.929,8.40669 30.33324,0 L 679.68153,361.2864 c 8.38552,-8.33369 8.40669,-21.94843 0,-30.35441 L 361.28898,12.491339 c -8.40424,-8.3819 -21.99677,-8.3819 -30.37877,0 L 12.518057,330.93199 c -8.40602,8.40598 -8.40602,22.02072 0,30.35441 L 330.93457,679.75302 z"
     id="path13" />
  <path
     inkscape:connector-curvature="0"
     style="fill:#ffd520;fill-rule:evenodd;stroke:none;fill-opacity:1"
     d="M 337.95561,672.6498 19.570197,354.24032 c -4.4752,-4.47322 -4.49587,-11.79124 0,-16.2941 L 337.95561,19.533129 c 4.54061,-4.47174 11.79618,-4.47174 16.28741,0 L 672.63097,337.94622 c 4.51908,4.50286 4.51908,11.82088 0,16.2941 L 354.24302,672.6498 c -4.51556,4.50497 -11.7468,4.50497 -16.28741,0 z"
     id="path15" />
  <path
     inkscape:connector-curvature="0"
     style="fill:#000000;fill-rule:evenodd;stroke:none"
     d="M 346.09981,63.954209 245.4202,155.5766 c -2.96615,2.31845 -3.41736,6.6421 -1.00929,9.53241 1.70532,2.04293 4.45805,2.88008 7.00722,2.14277 l 73.45645,-19.20981 0.11712,58.01219 21.10811,-0.12418 21.11129,0.12418 0.11289,-58.01219 73.45892,19.20981 c 2.54706,0.73731 5.29872,-0.0998 7.0097,-2.14277 2.40594,-2.89031 1.95439,-7.21396 -1.01248,-9.53241 L 346.09981,63.954209 z"
     id="path17" />
  <path
     inkscape:connector-curvature="0"
     style="fill:#ffffff;fill-rule:evenodd;stroke:none"
     d="m 221.42179,512.39406 c 0,11.4688 9.35002,20.69746 20.81883,20.69746 l 207.55577,0 c 11.4688,0 20.69394,-9.22866 20.69394,-20.69746 l 0,-270.01507 c 0,-11.46528 -9.22514,-20.81495 -20.69394,-20.81495 l -207.55577,0 c -11.59299,0 -20.81883,9.34967 -20.81883,20.81495 l 0,270.01507 z"
     id="path19" />
  <path
     inkscape:connector-curvature="0"
     style="fill:#000000;fill-rule:evenodd;stroke:none"
     d="m 225.53518,512.39406 c 0,9.22866 7.47606,16.58407 16.70544,16.58407 l 207.55577,0 c 9.22513,0 16.58055,-7.35541 16.58055,-16.58407 l 0,-270.01507 c 0,-9.21879 -7.35542,-16.70156 -16.58055,-16.70156 l -207.55577,0 c -9.22938,0 -16.70544,7.48277 -16.70544,16.70156 l 0,270.01507 z"
     id="path21" />
  <path
     inkscape:connector-curvature="0"
     style="fill:#ffffff;fill-rule:evenodd;stroke:none"
     d="m 231.6467,512.39406 c 0,5.73263 4.7371,10.47044 10.59392,10.47044 l 207.55577,0 c 5.73263,0 10.47044,-4.73781 10.47044,-10.47044 l 0,-270.01507 c 0,-5.85647 -4.73781,-10.59357 -10.47044,-10.59357 l -207.55577,0 c -5.85682,0 -10.59392,4.7371 -10.59392,10.59357 l 0,270.01507 z"
     id="path23" />
  <path
     inkscape:connector-curvature="0"
     style="fill:#000000;fill-rule:evenodd;stroke:none"
     d="m 292.22889,282.02521 0,-5.23628 3.36584,0 -3.36584,-10.09791 0,-8.59896 2.49414,0 11.59298,33.65536 -5.60883,0 -3.24166,-9.72221 -5.23663,0 z m 18.32432,9.72221 5.86034,0 5.48429,-11.34463 5.48465,11.34463 5.85682,0 -8.35096,-17.44945 7.85495,-16.20591 -5.85682,0 -4.98864,10.09791 -4.86091,-10.09791 -5.86354,0 7.85495,16.20591 -8.47513,17.44945 z m 28.9218,0 5.23979,0 0,-33.65536 -5.23979,0 0,33.65536 z m 13.84017,0 5.2317,0 0,-19.44758 7.72936,19.44758 7.72936,-19.32023 0,19.32023 5.3587,0 0,-33.65536 -5.3587,0 -7.72936,19.44441 -7.72936,-19.44441 -5.2317,0 0,33.65536 z m 34.4029,-33.65536 0.12333,24.42952 c 0.37747,5.36044 5.23522,9.97336 11.09486,9.97336 6.23358,0 11.2148,-4.61292 11.4688,-11.09308 l 0,-23.3098 -5.23522,0 0,23.18209 c 0,3.24203 -2.74461,5.98416 -6.11011,5.98416 -1.99319,0 -3.98639,-0.99554 -5.11175,-2.61479 -0.62089,-1.00259 -0.99483,-1.99461 -0.99483,-3.49319 l 0,-23.05827 -5.23523,0 z m 30.66344,33.65536 5.23875,0 0,-19.44758 7.85284,19.44758 7.72583,-19.32023 0,19.32023 5.24228,0 0,-33.65536 -5.24228,0 -7.72583,19.44441 -7.85284,-19.44441 -5.23875,0 0,33.65536 z m -170.78397,0 5.24016,0 0,-19.44758 7.85142,19.44758 7.73077,-19.32023 0,19.32023 5.23311,0 0,-33.65536 -5.23311,0 -7.73077,19.44441 -7.85142,-19.44441 -5.24016,0 0,33.65536 44.63134,-33.65536 0,8.59896 -3.49005,10.09791 3.49005,0 0,5.23628 -5.23664,0 -3.36586,9.72221 -5.61199,0 11.59617,-33.65536 2.61832,0 -44.63134,33.65536 z"
     id="path25" />
  <path
     inkscape:connector-curvature="0"
     style="fill:#000000;fill-rule:evenodd;stroke:none"
     d="m 397.6911,483.7238 0,-20.57047 c 6.731,-0.24356 12.46012,-3.98639 15.82914,-13.70895 2.25073,-6.48405 5.85964,-24.55686 5.85964,-44.75339 0,-6.61458 -0.37041,-13.09158 -1.24177,-19.69911 -2.2472,-19.939 -6.23359,-25.05428 -9.22867,-27.92589 -2.98803,-2.86456 -7.10495,-4.61433 -11.21834,-4.61433 l 0,-20.56554 c 14.08642,0.12728 25.92917,7.23477 32.53317,19.45076 1.00189,1.86619 9.35214,18.82069 9.35214,54.102 0,4.11339 -1.49578,44.49939 -11.22186,60.95648 -5.72911,9.97303 -17.82586,17.20144 -30.66345,17.32844 z M 252.462,471.26016 c 0.37571,0.62089 0.87524,1.12184 1.37125,1.61925 l 1.87078,1.74273 c 5.98417,5.60916 16.08173,9.72608 27.92236,9.72608 27.051,0 47.74565,-22.81414 47.74565,-57.09003 0,-26.80406 -17.82832,-43.13767 -38.89516,-43.13767 -7.47923,0 -12.84323,1.74625 -16.33326,3.86292 l 1.0026,-32.15923 47.99365,0 0,-20.56869 -67.81659,0 -2.61832,76.03947 20.81848,2.36714 c 1.62278,-1.74272 2.9905,-3.61244 4.86445,-5.23169 3.49004,-2.74461 7.97912,-4.49086 12.46434,-4.49086 9.35002,0 18.70005,7.85636 18.70005,23.18455 0,11.84628 -4.24073,22.81414 -7.98229,27.67895 -4.73358,6.11364 -12.33664,9.72256 -19.31989,9.72256 -7.7276,0 -14.96201,-3.73945 -17.95251,-7.35542 l -13.83559,14.08994 145.2291,-139.37404 0,20.56554 -0.12361,0 c -6.23358,0 -12.09322,3.4925 -15.45872,12.72469 -2.1202,5.60917 -6.11011,24.43339 -6.11011,45.8717 0,24.43339 5.73264,41.26089 6.48405,42.6332 l 0.99484,1.86972 c 2.86455,4.86128 7.35894,7.72936 13.46552,7.72936 0.24695,0 0.49742,-0.127 0.74789,-0.127 l 0,20.57047 c 0,0 -0.12361,0 -0.25061,0 -10.59392,0 -20.193,-4.24391 -25.55522,-9.59908 l -1.36525,-1.37583 c -4.11692,-4.35681 -6.985,-9.83898 -8.98173,-15.57867 -1.3723,-4.36386 -5.48569,-24.68386 -5.48569,-44.50292 0,-6.61106 0.50094,-16.33009 1.62278,-26.67706 2.49061,-24.68386 5.85964,-39.39009 20.32,-48.24411 5.85964,-3.7377 12.71411,-5.86001 19.69558,-5.86001 l 0,0 -145.2291,139.37404 z"
     id="path27" />
</svg>
