<?xml version="1.0" encoding="UTF-8" standalone="no"?>
<svg
   xmlns:dc="http://purl.org/dc/elements/1.1/"
   xmlns:cc="http://creativecommons.org/ns#"
   xmlns:rdf="http://www.w3.org/1999/02/22-rdf-syntax-ns#"
   xmlns:svg="http://www.w3.org/2000/svg"
   xmlns="http://www.w3.org/2000/svg"
   xmlns:sodipodi="http://sodipodi.sourceforge.net/DTD/sodipodi-0.dtd"
   xmlns:inkscape="http://www.inkscape.org/namespaces/inkscape"
   height="245.7016"
   width="245.70917"
   viewBox="82.992 45.607 719.74759 792.4822"
   id="svg2"
   version="1.1"
   inkscape:version="0.48.4 r9939"
   sodipodi:docname="D-340-2.svg">
  <metadata
     id="metadata2508">
    <rdf:RDF>
      <cc:Work
         rdf:about="">
        <dc:format>image/svg+xml</dc:format>
        <dc:type
           rdf:resource="http://purl.org/dc/dcmitype/StillImage" />
        <dc:title></dc:title>
      </cc:Work>
    </rdf:RDF>
  </metadata>
  <sodipodi:namedview
     pagecolor="#ffffff"
     bordercolor="#666666"
     borderopacity="1"
     objecttolerance="10"
     gridtolerance="10"
     guidetolerance="10"
     inkscape:pageopacity="0"
     inkscape:pageshadow="2"
     inkscape:window-width="1280"
     inkscape:window-height="1004"
     id="namedview2506"
     showgrid="false"
     inkscape:zoom="1.8049318"
     inkscape:cx="103.65944"
     inkscape:cy="134.20719"
     inkscape:window-x="-8"
     inkscape:window-y="-8"
     inkscape:window-maximized="1"
     inkscape:current-layer="svg2"
     showguides="true"
     inkscape:guide-bbox="true"
     fit-margin-top="0.2"
     fit-margin-left="0.2"
     fit-margin-right="0.2"
     fit-margin-bottom="0.2" />
  <defs
     id="defs4">
    <linearGradient
       id="linearGradient6324">
      <stop
         style="stop-color:#ec8028;stop-opacity:1;"
         offset="0"
         id="stop6326" />
      <stop
         style="stop-color:#ec8028;stop-opacity:0;"
         offset="1"
         id="stop6328" />
    </linearGradient>
    <clipPath
       id="SVG_CP_1">
      <path
         inkscape:connector-curvature="0"
         d="M 598.41107,0 0,0 l 0,392.15871 598.41107,0 0,-392.15871 z"
         id="path21406" />
    </clipPath>
    <clipPath
       id="clipPath6506">
      <path
         inkscape:connector-curvature="0"
         d="M 598.41107,0 0,0 l 0,392.15871 598.41107,0 0,-392.15871 z"
         id="path6508" />
    </clipPath>
    <clipPath
       id="clipPath6510">
      <path
         inkscape:connector-curvature="0"
         d="M 598.41107,0 0,0 l 0,392.15871 598.41107,0 0,-392.15871 z"
         id="path6512" />
    </clipPath>
    <clipPath
       id="clipPath6514">
      <path
         inkscape:connector-curvature="0"
         d="M 598.41107,0 0,0 l 0,392.15871 598.41107,0 0,-392.15871 z"
         id="path6516" />
    </clipPath>
    <clipPath
       id="clipPath6518">
      <path
         inkscape:connector-curvature="0"
         d="M 598.41107,0 0,0 l 0,392.15871 598.41107,0 0,-392.15871 z"
         id="path6520-6" />
    </clipPath>
    <clipPath
       id="clipPath6522">
      <path
         inkscape:connector-curvature="0"
         d="M 598.41107,0 0,0 l 0,392.15871 598.41107,0 0,-392.15871 z"
         id="path6524-5" />
    </clipPath>
    <clipPath
       id="clipPath6526">
      <path
         inkscape:connector-curvature="0"
         d="M 598.41107,0 0,0 l 0,392.15871 598.41107,0 0,-392.15871 z"
         id="path6528-2" />
    </clipPath>
    <clipPath
       id="SVG_CP_1-9">
      <path
         inkscape:connector-curvature="0"
         d="M 598.41107,0 0,0 l 0,392.15871 598.41107,0 0,-392.15871 z"
         id="path21406-3" />
    </clipPath>
    <clipPath
       id="SVG_CP_1-0">
      <path
         inkscape:connector-curvature="0"
         d="M 598.41107,0 0,0 l 0,392.15871 598.41107,0 0,-392.15871 z"
         id="path21406-1" />
    </clipPath>
    <clipPath
       id="clipPath6597">
      <path
         inkscape:connector-curvature="0"
         d="M 598.41107,0 0,0 l 0,392.15871 598.41107,0 0,-392.15871 z"
         id="path6599" />
    </clipPath>
    <clipPath
       id="clipPath6601">
      <path
         inkscape:connector-curvature="0"
         d="M 598.41107,0 0,0 l 0,392.15871 598.41107,0 0,-392.15871 z"
         id="path6603" />
    </clipPath>
  </defs>
  <style
     id="style_css_sheet"
     type="text/css"> 
/*
 * Below are Cascading Style Sheet (CSS) definitions in use in this file,
 * which allow easily changing how countries are displayed.
 *
 */

/*
 * Circles around small countries
 *
 * Change opacity to 1 to display all circles.
 *
 */
.circlexx
{
   opacity:1;
   fill:#e0e0e0;
   stroke:#000000;
   stroke-width:0.5;
}

/*
 * Smaller circles around French DOMs and Chinese SARs
 *
 * Change opacity to 1 to display all subnational circles.
 *
 */
.subxx
{
   opacity:1;
   stroke-width:0.3;
}

/*
 * Circles around small, unrecognized countries
 *
 * Change opacity to 1 to display all circles.
 *
 */
.unxx
{
   opacity:0;
   fill:#e0e0e0;
   stroke:#000000;
   stroke-width:0.3;
}

/*
 * Circles around small countries, but with no permanent residents 
 *
 * Change opacity to 1 to display all circles.
 *
 */
.noxx
{
   opacity:0;
   fill:#e0e0e0;
   stroke:#000000;
   stroke-width:0.5;
}

/*
 * land
 */
.landxx
{
   fill: #e0e0e0;
   stroke:#ffffff;
   stroke-width:0.5;
   fill-rule:evenodd;
}

/*
 * Styles for coastlines of islands with no borders
 */
.coastxx
{
   fill: #e0e0e0;
   stroke:#ffffff;
   stroke-width:0.3;
   fill-rule:evenodd;
}

/*
 * Styles for nations with limited recognition
 */
.limitxx
{
   fill: #e0e0e0;
   stroke:#ffffff;
   stroke-width:0;
   fill-rule:evenodd;
}

/*
 * Styles for nations with no permanent population.
 */
.antxx
{
   fill: #e0e0e0;
   stroke:#ffffff;
   stroke-width:0;
   fill-rule:evenodd;
}

/*
 * Ocean
 */
.oceanxx
{
   opacity: 1;
   color: #000000;
   fill:#ffffff;
   stroke:#000;
   stroke-width:0.5;
   stroke-miterlimit:1;
}

/*
 * Additional style rules
 *
 * The following are examples of colouring countries.  You can substitute these with your own styles to colour the countries on the map.
 *
 * Color a few countries:
 *
 * .gb, .au, .nc
 * {
 *    fill:       #ff0000;
 * }
 *
 * Color a few small country circles (and the countries):
 *
 * .ms, .ky
 * {
 *    opacity:    1;
 *    fill:       #ff0000;
 * }
 *
 */

/* Same-sex marriage */
.ar, .be, .ca, .dk, .es, .is, .nl, .no, .pt, .se, .za
{ fill: #002255; }

/* Civil unions etc. */
.ad, .at, .au, .bl, .br, .ch, .co, .cz, .de, .ec, .fi, .fr, .gb, .gf, .gl, .hr, .hu, .ie, .il, .im, .je, .li, .lu, .mf, .nc, .nf, .nz, .pm, .re, .si, .uy, .wf
{ fill: #0066ff; }

/* Recognition of foreign marriages */
.aw, .cw, .sx, .mx
{ fill: #7fbcff; }

/* Legal but no recognition */
.ai, .al, .am, .as, .az, .ba, .bg, .bf, .by, .bj, .bm, .bo, .bs, .cd, .cg, .cf, .ci, .cl, .cn, .cr, .cu, .cv, .cy, .dj, .do, .ee, .fk, .fj, .fm, .fo, .ga, .ge, .gg, .gi, .gq, .gr, .gs, .gt, .gu, .gw, .hn, .ht, .id, .in, .iq, .it, .jo, .jp, .kg, .kh, .kp, .kr, .ky, .kz, .la, .lk, .lt, .lv, .mc, .md, .me, .mg, .mh, .mk, .ml, .mn, .mp, .mt, .ms, .mz, .ne, .ni, .np, .pa, .pe, .pf, .ph, .pl, .pn, .pr, .py, .ro, .rs, .ru, .rw, .sh, .sk, .sm, .sr, .st, .sv, .tc, .td, .th, .tj, .tk, .tl, .tr, .tw, .ua, .us, .va, .ve, .vg, .vi, .vn, .vu, .xk, .ps_west_bank
{ fill: #cccccc; }

/* Illegal, minimal penalty */
.bt, .lb, .lr
{ fill: #f9dc36; }

/* Illegal, large penalty */
.ag, .ao, .bh, .bi, .bn, .bw, .bz, .cm, .ck, .dm, .dz, .eg, .eh, .er, .et, .gd, .gh, .gm, .gn, .jm, .ke, .ki, .km, .kn, .kw, .lc, .ls, .ly, .ma, .mu, .mv, .mw, .my, .na, .ng, .nr, .nu, .om, .pg, .pw, .qa, .sb, .sc, .sg, .sn, .so, .ss, .sy, .sz, .tg, .tm, .tn, .to, .tt, .tv, .uz, .vc, .ws, .zm, .zw, .xc, .ps_gaza_strip
{ fill: #ec8028; }

/* Illegal, life imprisonment */
.bb, .bd, .gy, .mm, .pk, .sl, .tz, .ug
{ fill: #e73e21; }

/* Illegal, death penalty */
.ae, .af, .ir, .mr, .sa, .sd, .ye
{ fill: #8c201f; }

/* SUB-NATIONAL UNITS */

/* Same-sex marriage */
.br_al, .mx_dif, .us_ct, .us_dc, .us_ia, .us_ma, .us_md, .us_nh, .us_ny, .us_vt, .us_wa
{ fill: #002255; }

/* Civil unions etc. */
.mx_coa, .uk_je, .us_ca, .us_co, .us_de, .us_hi, .us_il, .us_me, .us_nj, .us_nv, .us_or, .us_ri, .us_wi, .ve_l
{ fill: #0066ff; }

/* Recognition of foreign marriages */
.bq
{ fill: #7fbcff; }

/* Illegal, large penalty */
.id_ac
{ fill: #ec8028; }

/* Illegal, death penalty */
.ng_sharia, .so_shabaab
{ fill: #8c201f; }

</style>
  <path
     inkscape:connector-curvature="0"
     style="fill:#ffd520;fill-rule:evenodd;stroke:none;fill-opacity:1"
     d="M 420.89172,828.33041 56.370292,463.80952 c -12.1503,-12.11938 -12.1503,-31.79949 0,-43.9499 L 420.89172,55.338223 c 12.11494,-12.114861 31.83535,-12.114861 43.9507,0 L 829.36331,419.85962 c 12.14761,12.15041 12.14761,31.83052 0,43.9499 L 464.84242,828.33041 c -12.15164,12.15164 -31.80432,12.15164 -43.9507,0 z"
     id="path11" />
  <path
     inkscape:connector-curvature="0"
     style="fill:#000000;fill-rule:evenodd;stroke:none"
     d="m 425.47461,823.80604 c 9.62213,9.62374 25.1568,9.62374 34.77931,0 L 824.81513,459.24483 c 9.59552,-9.59352 9.62374,-25.17978 0,-34.80636 L 460.28214,59.905443 c -9.59832,-9.59507 -25.23659,-9.59507 -34.83495,0 L 60.917802,424.43847 c -9.62653,9.62658 -9.59504,25.21284 0,34.80636 L 425.47461,823.80604 z"
     id="path13" />
  <path
     inkscape:connector-curvature="0"
     style="fill:#ffd520;fill-rule:evenodd;stroke:none;fill-opacity:1"
     d="M 433.51823,815.73199 68.989162,451.17927 c -5.12235,-5.1203 -5.14598,-13.49985 0,-18.65363 L 433.54204,67.968913 c 5.14207,-5.12236 13.52844,-5.12236 18.64594,0 L 816.7407,432.52564 c 5.14449,5.15378 5.14449,13.53333 0,18.65363 L 452.18798,815.73199 c -5.14127,5.15659 -13.50387,5.15659 -18.64594,0 l -0.0226,0 z"
     id="path15" />
  <path
     inkscape:connector-curvature="0"
     style="fill:#000000;fill-rule:evenodd;stroke:none"
     d="m 376.10145,152.07602 0,579.97659 134.00224,0 0,-579.97659 -134.00224,0 z m 4.93364,5.22472 124.24262,0 0,286.90283 -124.24262,0 0,-286.90283 z m 11.03201,172.13998 c 1.31515,0.12983 2.59079,0.51203 3.74429,1.12204 1.2837,0.67329 2.43313,1.63002 3.33102,2.78391 0.35034,0.57855 0.86198,0.9922 1.50383,1.21274 0.86237,0.29109 1.7917,0.16127 2.5279,-0.38221 l 6.11452,-1.24782 c 0.89746,0.48421 1.95255,0.63782 2.94478,0.48421 0.83495,-0.13024 1.4768,-0.74022 2.24041,-1.02365 2.37027,-0.87045 5.02799,0.18868 7.36275,-0.74023 1.0906,-0.41366 2.24003,-0.83497 3.07502,-1.69696 0.48016,-0.48058 0.70474,-1.15388 1.15346,-1.69695 0.38182,-0.48058 0.76764,-0.92931 1.24822,-1.31112 0.76764,-0.60637 1.82276,-0.70475 2.62224,-1.31515 1.37805,-1.0551 2.40172,-2.52749 2.81899,-4.22445 0.25964,-1.05551 0.57492,-2.17754 0.12998,-3.20119 -0.51161,-1.25186 -1.92514,-1.59858 -3.01209,-2.24044 -0.92891,-0.5471 -1.95258,-0.76764 -2.87785,-1.31071 -0.83499,-0.48462 -1.50425,-1.21678 -2.37027,-1.66551 -0.8664,-0.44913 -1.69694,-0.99221 -2.68917,-1.05551 -1.21677,-0.0984 -2.24444,0.63419 -3.35843,0.99221 -1.18894,0.38221 -2.33879,0.82691 -3.49228,1.24419 -1.21678,0.42132 -2.65772,0.38584 -3.68136,1.21678 -1.21678,0.99221 -1.15349,2.81899 -2.01587,4.07124 -2.94922,4.22445 -8.96495,3.86603 -12.96524,6.65397 -1.50425,1.02366 -2.94922,2.14569 -4.35468,3.33061 z m 64.43876,102.1794 -4.35427,-6.46487 c -1.18533,-0.96078 -2.4271,-1.82718 -3.7737,-2.56337 -1.53609,-0.83457 -3.1383,-1.46836 -4.80382,-1.95297 -1.21677,-0.86199 -2.65368,-1.37402 -4.1579,-1.47239 -1.47239,-0.0984 -2.91736,0.22448 -4.22445,0.89785 -2.62627,-1.21678 -5.54363,-1.69694 -8.41786,-1.4095 -1.98845,0.19256 -3.90956,0.7362 -5.66981,1.63366 l -2.21261,0.1932 -1.43691,4.70503 c 1.12201,1.66549 2.46458,3.20078 3.99986,4.51593 2.59482,2.26786 5.66984,3.90191 8.99683,4.83485 2.33475,0.9253 4.83485,1.33853 7.33129,1.21274 2.72062,-0.12611 5.3779,-0.89785 7.74453,-2.24444 1.63366,-1.40547 3.61688,-2.29932 5.7658,-2.55896 1.75783,-0.22062 3.54792,0.0322 5.21302,0.6733 z m -61.5371,-215.96936 c 2.62627,0.57493 5.37833,0.4447 7.93767,-0.35439 3.3306,-1.02365 6.24838,-3.13386 8.26424,-5.9847 0.6733,-0.73619 1.50384,-1.3466 2.39766,-1.79533 0.92933,-0.48018 1.95297,-0.73216 3.01212,-0.83053 0.60637,0.25561 1.31112,0.28705 1.94894,0.0669 0.86601,-0.29151 1.50383,-1.02769 1.73242,-1.89411 l 7.26398,-3.48422 c 0.51203,0 1.02364,-0.26003 1.2837,-0.70878 0.25191,-0.41325 0.25191,-0.95672 0.0323,-1.40546 -1.37805,-0.89786 -2.5279,-2.11464 -3.33102,-3.55557 -0.51164,-0.89383 -0.8624,-1.88564 -1.05512,-2.9097 0.0323,-0.57855 -0.0984,-1.12203 -0.35437,-1.63366 -0.22449,-0.44913 -0.54348,-0.80312 -0.96078,-1.09058 -0.9293,-0.4451 -1.69291,-1.14985 -2.17713,-2.07916 -0.48059,-0.89747 -0.63782,-1.92112 -0.48059,-2.91333 -0.51161,-0.61041 -1.24419,-0.96077 -2.04731,-0.96077 -0.76764,0 -1.50383,0.35036 -1.98442,0.92529 l -8.48073,7.52401 c -1.60221,1.25226 -3.36246,2.24407 -5.2207,2.98066 -2.24042,0.89343 -4.64214,1.37401 -7.03979,1.47238 -0.57857,-0.12982 -1.18494,0.0943 -1.60263,0.54348 -0.32254,0.3818 -0.48016,0.86198 -0.41727,1.37401 l 2.1106,2.20858 c 0.6733,0.22862 1.18494,0.74023 1.44497,1.4095 0.2519,0.6733 0.15708,1.44134 -0.22868,2.05134 l -1.14946,5.47308 -0.89785,5.57104 z m 102.18098,27.8637 -1.1571,0.35439 c -1.15308,0.31892 -2.33438,0.54347 -3.5197,0.73619 -3.16895,0.48058 -6.40239,0.99221 -9.53908,0.19311 -1.18533,-0.29148 -2.30212,-0.80313 -3.42294,-1.24823 -3.07218,-1.18492 -5.98712,-2.72464 -9.06333,-3.87409 -1.4353,-0.54751 -2.87866,-1.02366 -4.35427,-1.50424 -0.89101,-0.19271 -1.82637,0.16169 -2.36663,0.89384 -0.38301,0.54347 -0.54428,1.24822 -0.38301,1.89007 l 0.12901,3.77975 -0.51203,4.89775 c -0.44752,1.47239 -0.0968,3.03952 0.89505,4.193 0.80231,0.89383 1.9191,1.43731 3.13669,1.50424 l 8.42228,2.46056 c 0.63702,1.31515 1.69333,2.33881 3.03993,2.88632 1.18533,0.51162 2.52789,0.57452 3.7737,0.252 1.7659,-0.0948 3.55598,0 5.2856,0.32254 1.2458,0.22052 2.49564,0.54347 3.71322,0.9922 0.76603,0.29148 1.56431,0.29148 2.3384,0 0.762,-0.28747 1.37482,-0.83053 1.75381,-1.53528 l 0.70958,-7.39419 2.43517,-7.68569 c 0.63701,-0.3189 0.89101,-1.15348 0.51203,-1.75985 -0.38705,-0.63782 -1.24984,-0.79909 -1.82638,-0.35439 z M 464.0573,166.30158 c 0.31834,-0.35076 0.44752,-0.86239 0.31834,-1.34297 -0.22158,-0.86602 -1.1813,-1.3462 -2.01586,-0.96439 -3.26571,0 -6.53141,0.0984 -9.79711,0.29148 -4.96106,0.28706 -9.92208,0.79909 -14.85531,1.53528 -2.39768,0.76401 -4.57521,2.11424 -6.30362,3.9648 -1.60221,1.70099 -2.75206,3.77975 -3.39392,6.02019 l 1.92153,11.43358 c 1.12204,0.92528 2.62627,1.27967 4.03173,0.95673 1.38208,-0.28748 2.52751,-1.18492 3.20081,-2.39767 5.2485,-3.42536 11.13843,-5.76417 17.32191,-6.8862 1.08857,-0.18907 2.20536,-0.35035 3.29796,-0.48058 0.70152,-0.57452 1.34257,-1.24379 1.82234,-2.01586 0.83457,-1.34257 1.27806,-2.9093 1.21759,-4.4845 0.0603,-0.70071 0.25383,-1.40546 0.51203,-2.07876 0.54428,-1.40546 1.50383,-2.65772 2.72141,-3.55115 z m 37.1524,21.48146 c -2.1086,-1.57116 -4.09221,-3.29956 -5.89036,-5.21706 -1.15308,-1.2204 -2.20536,-2.50007 -3.2012,-3.84264 -0.508,-0.31889 -1.05228,-0.57855 -1.62882,-0.83457 -1.72961,-0.73619 -3.58421,-1.1184 -5.44283,-1.1184 l -6.37014,-3.58663 c -1.28612,-0.70071 -2.91494,-0.48058 -3.939,0.57493 -0.66927,0.6733 -0.99181,1.57076 -0.95955,2.50007 -0.51203,1.24823 -1.24581,2.39768 -2.17714,3.35844 -1.21355,1.25185 -2.68916,2.14568 -4.35427,2.65771 -1.21355,-0.57492 -2.52789,0.61 -2.04811,1.85823 0.32253,0.86239 1.34659,1.24419 2.14488,0.76764 3.2657,-0.0355 6.5314,0.47655 9.63583,1.47279 2.97945,0.96076 5.82585,2.37026 8.39004,4.16155 1.14904,1.21678 2.71738,1.98442 4.38249,2.20859 0.96358,0.13021 1.92313,0.0673 2.85043,-0.19272 l 8.60775,-4.76793 z m -75.76267,48.47511 -2.14207,-1.94894 c -0.41727,-0.93294 -0.96036,-1.76388 -1.57077,-2.567 -0.54347,-0.70072 -1.18533,-1.31112 -1.85862,-1.88605 l -3.5826,0.16169 -3.23264,-2.72061 -5.40978,-0.19314 c -2.17713,-0.74022 -4.48045,-0.96076 -6.75637,-0.6104 -2.68917,0.41769 -5.21664,1.56713 -7.26799,3.36246 -0.73216,0.41729 -1.31112,1.09059 -1.66552,1.8546 -0.35034,0.80312 -0.44469,1.7284 -0.25191,2.59845 0.44511,1.0551 0.83093,2.14206 1.08696,3.26409 0.25577,1.09058 0.41727,2.17351 0.48016,3.26006 0.0323,0.96439 0.44875,1.85822 1.1535,2.50007 0.64185,0.57896 1.47277,0.89787 2.33879,0.89787 l 7.00837,-0.28745 3.74425,1.31112 2.20859,-0.6104 3.20119,1.09058 1.2837,-0.38583 2.27148,-2.94115 8.96135,-6.15 z m 48.18966,-33.9625 c -1.56835,-0.6733 -3.13669,-1.43731 -4.60827,-2.30736 -1.63285,-0.92528 -3.16894,-1.98441 -4.64455,-3.13386 -2.08038,-0.86238 -4.28977,-1.47278 -6.53544,-1.79169 -4.12446,-0.61 -8.34972,-0.29109 -12.34919,0.92931 -0.57857,-0.12982 -1.22042,-0.0355 -1.73245,0.252 -0.60638,0.35438 -1.05508,0.93334 -1.18087,1.63405 0.66926,0.19272 1.21635,0.6733 1.49979,1.27967 0.44914,0.89747 0.32293,1.92112 -0.31899,2.68917 l 1.50426,4.77195 2.46458,1.15348 0.0322,2.2993 1.69536,1.21678 c 0.48381,0.32657 0.99584,0.5471 1.54012,0.67692 0.35479,0.0948 0.73781,0.16169 1.12082,0.16169 1.21355,-0.74022 2.55612,-1.2837 3.97126,-1.60261 1.18533,-0.25964 2.36662,-0.35439 3.58421,-0.29151 0.89101,-0.16127 1.79412,-0.38181 2.65691,-0.6733 0.6733,-0.22013 1.31434,-0.48018 1.95136,-0.79506 1.21758,-0.89786 2.43516,-1.86225 3.58824,-2.81898 0.92326,-0.76805 1.85459,-1.57117 2.74964,-2.39808 l 3.0117,-1.25185 z m -54.57592,58.6371 c -0.51203,-0.28745 -1.02367,-0.51163 -1.56715,-0.6733 -2.43313,-0.76361 -4.8663,0.35439 -7.26799,0.80352 -3.38988,0.64145 -6.402,2.75206 -9.8588,3.03952 -1.27968,0.12982 -2.59079,-0.28744 -3.8745,0.0316 -1.2478,0.3189 -2.62585,0.70475 -3.39391,1.82678 -0.89343,1.27967 -0.41727,2.87825 -0.28706,4.35064 0.16127,2.05134 1.53528,3.77572 1.73203,5.83109 0.0948,1.08655 0.0632,2.17714 -0.0351,3.26409 -0.1616,1.50384 -0.83499,2.9093 -0.99223,4.41354 -0.0948,0.80312 -0.0948,1.57076 -0.12611,2.37025 -0.0668,1.73244 0,3.45681 -0.19256,5.15376 -0.12611,1.02366 -0.66968,1.98845 -0.51606,3.01211 0.13031,0.73216 0.25997,1.53528 0.87044,2.04731 0.95674,0.79909 2.20455,0.18907 3.2637,-0.0948 1.63001,-0.44873 2.55934,-2.08279 4.00028,-2.85043 4.28773,-2.27188 9.44151,0.0948 13.92599,-1.44094 1.94894,-0.6733 4.38613,-0.70475 5.60291,-2.55935 1.12202,-1.69695 0.54709,-3.77974 0.41727,-5.66942 -0.22868,-2.97662 -1.89411,-5.56741 -2.62627,-8.41785 -0.64185,-2.46459 -1.79531,-4.89815 -1.59857,-7.49257 0.18901,-2.49241 1.05509,-4.89815 2.52387,-6.94546 z m 15.09519,-39.18722 2.8194,5.31543 c 0.60999,0.95673 1.02364,2.04732 1.18491,3.16532 0.15772,1.12203 0.0594,2.30736 -0.25609,3.39794 l -1.28332,6.52777 c -1.14985,2.78391 0.0322,5.98471 2.72061,7.3313 2.17714,1.09059 4.8034,0.70475 6.56326,-0.9922 l 4.09785,-4.64577 c 0.70556,-1.43731 1.47159,-2.81132 2.33438,-4.15792 0.70958,-1.09059 1.44336,-2.14569 2.24567,-3.16935 l 4.57602,-1.91749 c 0.96358,-0.26006 1.75783,-0.99221 2.14488,-1.92515 0.32253,-0.76401 0.32253,-1.63406 0,-2.39807 l -0.99181,-3.84265 c -0.47978,-0.51203 -1.0926,-0.89383 -1.72961,-1.12203 -0.60476,-0.22455 -1.27806,-0.31889 -1.91911,-0.252 l -10.56516,-1.05913 c -0.70514,0 -1.40988,-0.0947 -2.1106,-0.256 -0.86601,-0.19272 -1.69696,-0.51163 -2.50008,-0.92931 l -3.55154,-2.4646 c -1.05512,-0.96076 -2.72061,-0.86239 -3.64952,0.22458 -0.76806,0.89384 -0.83499,2.20858 -0.1303,3.16935 z m 54.57553,-6.09477 -8.61178,2.94518 -3.99948,3.77572 c -1.12485,0.96076 -1.92313,2.20858 -2.31018,3.64992 -0.35076,1.34257 -0.28609,2.72062 0.13321,4.03174 l 0.41124,3.36206 c 0.45155,0.83094 1.15307,1.53568 1.98361,1.98441 1.21758,0.6733 2.62869,0.80312 3.94303,0.41729 l 4.06399,-1.8542 c 1.53609,0.54308 3.16894,0.70475 4.7655,0.41326 1.06035,-0.19272 2.11666,-0.54308 3.04396,-1.08655 l 7.07569,-5.57105 c 0.60879,-1.08696 0.89907,-2.33881 0.89907,-3.58703 0,-1.24823 -0.35479,-2.42912 -0.95955,-3.5197 l -2.31018,-3.45721 c -0.31835,-0.51163 -0.76603,-0.89747 -1.31031,-1.18493 -0.47978,-0.256 -1.06035,-0.38583 -1.6006,-0.38583 l -2.14891,0.83456 -3.06815,-0.76764 z m 4.93484,181.71538 c -1.47158,-0.28738 -2.85447,-0.96079 -3.97126,-1.94895 -0.70152,-0.6104 -1.27806,-1.3466 -1.72558,-2.17755 -1.02809,-0.96439 -2.30615,-1.63366 -3.65275,-1.98803 -1.37482,-0.35038 -2.81414,-0.38182 -4.22928,-0.0629 -1.88685,0.70475 -3.86643,1.14943 -5.89036,1.34257 -1.88685,0.19675 -3.80596,0.16127 -5.69281,-0.0948 -0.67329,-0.57853 -1.6651,-0.54305 -2.30615,0.0323 -0.4193,0.35037 -0.61282,0.89385 -0.58056,1.44136 0.61282,0.86601 0.9918,1.85821 1.12485,2.88189 0.16127,1.40546 -0.13289,2.85043 -0.89505,4.06318 3.07218,3.26409 7.36194,5.0594 11.8412,5.02795 3.62049,-0.0323 7.14019,-1.31112 9.95837,-3.58298 0.6733,-1.05915 1.49981,-1.98442 2.43517,-2.78754 1.05228,-0.89385 2.26583,-1.63408 3.58421,-2.14569 z m 6.38626,-77.50481 0.31447,-1.76388 c -0.60072,-0.51163 -1.18129,-1.0551 -1.72154,-1.63003 -0.86683,-0.96036 -1.3466,-2.24003 -2.24165,-3.20079 -0.9031,-0.92931 -1.89491,-1.7913 -3.04799,-2.4017 -1.17726,-0.63782 -2.45935,-1.118 -3.80192,-1.18493 -0.86682,-0.0633 -1.79815,-0.22458 -2.56418,0.25965 -0.76603,0.44873 -1.02809,1.34256 -1.4111,2.11423 -0.64105,1.21275 -1.05229,2.55935 -1.21356,3.93336 -0.31834,2.62224 -0.96358,5.18924 -1.88685,7.65021 -0.70555,1.88564 -1.60462,3.68137 -2.62465,5.41341 l -3.84627,5.05538 c -0.54026,1.66551 -0.57251,3.45721 -0.0603,5.1578 0.41124,1.37441 1.18533,2.62224 2.20939,3.64589 1.18533,0.6733 2.39485,1.2837 3.68097,1.79573 1.24984,0.48018 2.49564,0.89344 3.80999,1.21235 l 3.33021,3.14192 0.35076,-5.09086 c 0.0645,-2.40533 0.60879,-4.74011 1.56834,-6.94909 0.6733,-1.50384 1.76187,-2.75206 2.5279,-4.193 0.5725,-1.05551 1.08453,-2.11062 1.59656,-3.2012 l 5.0316,-9.76445 z m -42.38156,31.63982 -4.16477,-5.9847 c -1.82235,-1.98442 -4.47926,-3.04356 -7.16842,-2.91333 -2.11424,0.0943 -4.1301,0.96076 -5.69725,2.4017 -0.19288,2.49201 -0.54306,4.99249 -1.08653,7.45709 -0.54712,2.46863 -1.25187,4.8663 -2.14569,7.20511 l -1.50425,8.89804 c -0.38947,1.59856 -0.22836,3.29554 0.48058,4.76792 0.57492,1.18533 1.43691,2.17753 2.52751,2.91372 1.31515,1.24822 2.91371,2.17713 4.63809,2.65772 1.18533,0.31899 2.43716,0.48019 3.68136,0.38585 1.34782,0.32292 2.78715,0 3.84346,-0.89788 0.9273,-0.76765 1.47562,-1.92111 1.53609,-3.13385 l -0.0323,-2.78754 0.51606,-2.27593 0.56847,-3.26368 2.47145,-10.9772 1.53609,-4.45304 z m 31.06046,31.35236 1.47158,-6.27218 c 0.28641,-0.38985 0.54428,-0.8386 0.73781,-1.2837 0.73377,-1.66511 0.18965,-3.48825 0,-5.21664 -0.13289,-1.37805 -0.25803,-2.75611 -0.77006,-4.06722 -0.57654,-1.50384 -1.50384,-2.87826 -2.65691,-4.03174 -0.64105,-0.6104 -1.31032,-1.15347 -2.08441,-1.6022 -0.9918,-0.0319 -1.97958,-0.0319 -2.97138,0.0313 -3.8745,0.19675 -8.97061,-1.66551 -11.30498,2.30696 -0.44349,0.73256 -0.76603,1.57116 -0.92326,2.39807 0.95955,1.05914 1.18129,2.59442 0.60476,3.87409 -0.28642,0.64185 -0.76603,1.15349 -1.3466,1.53931 0,0.54348 0.0684,1.08696 0.19739,1.63005 0.57251,2.52789 2.43113,4.57521 4.86227,5.44525 2.65691,1.34257 5.47509,2.33073 8.386,2.94114 1.28209,0.25996 2.68916,-0.0629 3.87449,0.57895 0.77006,0.41327 1.41111,1.02367 1.92314,1.72842 z M 448.95846,262.09429 c -2.91171,0.96076 -5.88836,1.7284 -8.92785,2.27591 -2.75206,0.51163 -6.05163,-1.02366 -8.35497,0.98818 -0.54709,0.48018 -1.12202,0.96076 -1.4095,1.63406 -0.32292,0.79909 -0.25609,1.66551 -0.0323,2.46459 0.12998,0.48018 0.48019,0.83457 0.6104,1.31516 0.35038,1.18492 -0.57895,2.36622 -0.38221,3.58259 0.3148,1.85863 1.78767,3.1383 2.97262,4.51635 0.99219,1.15347 1.85862,2.55894 3.33101,3.10241 1.66549,0.64185 3.42133,0.0355 5.08682,-0.3818 4.03575,-0.99624 7.6857,-3.39391 9.6048,-7.13818 0.86279,-1.66551 1.47561,-3.49269 1.44336,-5.37833 0,-0.74023 -0.0322,-1.44134 -0.25803,-2.14609 -0.25384,-0.77167 -0.70555,-1.47239 -1.27806,-2.04731 l -2.40694,-2.78754 z m 47.61071,170.97847 0.63702,-3.07098 c 0.38704,-1.15346 0.12901,-2.43717 -0.70556,-3.33102 -0.83053,-0.92891 -2.10859,-1.28328 -3.33021,-0.96036 l -11.71217,-1.957 c -0.86683,-0.63379 -1.92314,-0.99219 -3.00768,-0.95671 -0.60879,0.0322 -1.18532,0.16127 -1.73364,0.38179 -0.24997,0.57492 -0.44349,1.18533 -0.60476,1.79534 -0.12901,0.57493 -0.22158,1.18533 -0.25803,1.7917 -0.64104,0.0671 -1.18533,0.48017 -1.43933,1.05912 -0.25803,0.54309 -0.22577,1.1535 0.0645,1.66553 l 0.60879,2.68874 0.25416,2.84279 3.78177,1.41353 7.32565,0.44871 c 1.50384,-0.8386 3.07621,-1.57076 4.67278,-2.17713 1.76589,-0.6733 3.58824,-1.22039 5.44687,-1.63405 z M 477.69664,160.49387 c 0.80635,0.77167 1.37482,1.7284 1.66511,2.78754 0.19352,0.70112 0.29028,1.43731 0.22577,2.17754 1.18533,2.29929 3.20523,4.09462 5.63636,4.98846 2.04409,0.77167 4.25751,0.87005 6.37014,0.29109 l 7.68448,0.0988 c 0.47977,0.38181 1.18533,0.35036 1.6651,-0.0355 0.51203,-0.4451 0.63702,-1.18533 0.24997,-1.76025 l -1.27403,-4.73648 c 0.66927,-0.6733 0.60073,-1.82678 -0.16127,-2.4017 -0.6733,-0.51163 -1.60059,-0.41728 -2.17713,0.19314 -2.59644,1.21637 -5.41058,1.85822 -8.2973,1.88604 -4.12446,0.0629 -8.1562,-1.1813 -11.5872,-3.48866 z m -27.28272,393.91787 0,67.42947 -19.52567,0 0,-67.42947 19.52567,0 z m 0.58057,-105.37332 0,67.43473 -19.5277,0 0,-67.43473 19.5277,0 z m 0,210.74138 0,67.43877 -19.5277,0 0,-67.43877 19.5277,0 z m -4.06602,-335.85489 c 1.31515,0.35036 2.6912,0.48018 4.03376,0.44874 1.21759,-0.0355 2.46742,-0.0669 3.58824,-0.57896 0.70152,-0.35036 1.40708,-0.73216 1.91911,-1.37402 0.73377,-0.92528 0.6733,-2.20858 0.9273,-3.33101 0.60879,-2.78351 0.19352,-5.66176 0.54428,-8.48075 0.32254,-2.37025 0.19352,-4.83485 1.31434,-7.01198 0.38302,-0.7366 1.05632,-1.24823 1.31032,-2.04732 0.25803,-0.86642 0.47977,-1.85862 0,-2.68916 -0.51203,-0.89787 -1.56835,-1.15388 -2.53193,-1.37805 -0.72974,-0.15762 -1.50384,-0.0355 -2.23761,0 -1.8546,0.12579 -3.55196,0.92891 -5.37833,1.21638 -1.9191,0.31889 -4.09585,-0.51163 -5.82827,0.60637 -0.60637,0.41728 -1.31112,0.77167 -1.5986,1.50424 -0.25189,0.64145 0.0632,1.31474 0.0948,1.98401 0.16127,2.37026 0.44871,4.74454 0.96074,7.07529 0.38586,1.85862 1.37805,3.55921 1.50787,5.44525 0.0942,1.43731 -0.0629,2.91373 -0.41727,4.3192 l 1.79128,4.29177 z m 0.57896,78.66594 c -0.34673,-0.60638 -0.51203,-1.31112 -0.44511,-2.01587 0.0984,-0.8664 0.9253,-1.44094 1.21678,-2.24042 0.38101,-1.12204 1.0906,-2.43317 0.28835,-3.51971 -0.57976,-0.77167 -1.57199,-0.83499 -2.43033,-1.05915 -1.98806,0.22416 -4.00392,0.32254 -6.01978,0.35441 -2.37024,0.0323 -4.77196,-0.0987 -7.1422,-0.32296 -0.57492,0.16127 -1.08695,0.54309 -1.43733,1.0277 -0.35437,0.48017 -0.51161,1.08654 -0.48016,1.69291 l 0.79909,1.60222 -0.54309,3.39391 2.01587,2.17755 2.24003,1.79129 c 2.209,1.0906 4.73647,1.24822 7.0753,0.51606 0.76763,-0.25997 1.46873,-0.57896 2.14203,-0.99219 -0.0632,-0.64186 0.19675,-1.28371 0.64146,-1.7639 0.54348,-0.54348 1.31112,-0.80351 2.07915,-0.64185 z m 41.8006,-124.8224 -0.25384,-2.88188 c -0.79828,-0.73257 -1.72558,-1.31112 -2.74964,-1.66551 -3.10847,-1.08292 -6.34191,0.16127 -8.70854,2.30736 -2.65691,2.4017 -2.46742,6.2129 -2.97945,9.50843 -0.54428,3.39351 -0.60879,6.88217 -0.0929,10.27608 0.0929,0.70474 0.18546,1.40949 0.38301,2.11021 0.22159,0.86642 0.51203,1.76388 0.99181,2.53152 1.31434,2.11464 3.51567,3.68137 6.05163,3.48866 1.37482,-0.0948 2.68916,-0.6733 3.74548,-1.59858 0.89101,-0.79909 1.7538,-1.73244 1.91507,-2.94518 0.16127,-1.05511 -0.86279,-1.9566 -0.762,-3.01171 0.0603,-0.76401 0.47978,-1.47279 0.73378,-2.17753 0.32253,-0.83054 0.89907,-1.59859 1.05228,-2.49605 0.16127,-1.02366 -0.18933,-2.04731 -0.35076,-3.03952 -0.25416,-1.56714 -0.63702,-3.1379 -1.14905,-4.64214 -0.44752,-1.44094 -0.22577,-3.00807 0.60879,-4.25992 0.41527,-0.60638 0.9273,-1.11841 1.56432,-1.50424 z m -98.40245,-98.11579 c -0.0629,0.96076 0,1.92112 0.22449,2.88188 0.22416,0.96076 0.57856,1.92152 1.05512,2.78391 1.82272,2.30695 4.8034,3.39351 7.68164,2.81898 2.17713,-0.41728 4.06682,-1.73243 5.2207,-3.61847 0.89746,-1.08656 1.40949,-2.46057 1.40949,-3.90554 0,-0.92932 -0.22868,-1.88605 -0.64185,-2.72061 -1.47239,-1.98442 -2.33882,-4.35468 -2.43316,-6.81968 -0.0629,-1.75985 0.22448,-3.55115 0.89746,-5.18521 1.18533,-2.24003 -0.0984,-4.99249 -2.5944,-5.53959 -1.21678,-0.252 -2.49606,0.0984 -3.42536,0.96076 -0.35037,0.80312 -0.76764,1.53528 -1.31112,2.20858 -0.4173,0.54348 -0.89788,1.02366 -1.44094,1.47279 -0.76806,0.22416 -1.44136,0.64145 -1.98442,1.21637 -0.70475,0.77168 -1.12205,1.79533 -1.12205,2.85044 l -1.53567,10.59539 z m 0,250.51845 3.16933,-1.47239 c 0.99222,0.60638 2.209,0.79909 3.33101,0.4802 0.57493,-0.16127 1.14985,-0.44875 1.5986,-0.86602 l 3.61846,-0.44913 -0.1303,-2.01587 0.44913,-4.06318 3.04315,-6.69309 c 0.6733,-0.48058 0.86237,-1.44133 0.38221,-2.14607 -0.41769,-0.60638 -1.21678,-0.86199 -1.88604,-0.57454 -0.86644,0.31899 -1.79535,0.44471 -2.72465,0.41327 -1.11801,-0.0593 -2.17352,-0.38182 -3.13388,-0.9253 l -4.26031,0.38182 -1.75987,1.15388 c -0.83457,-0.25609 -1.72839,0.0945 -2.17713,0.86602 -0.35076,0.60637 -0.35076,1.34256 0.0322,1.95297 l 0.73619,2.37024 c 0.86602,0.73216 1.44095,1.72438 1.66553,2.81092 0.16127,0.83499 0.12579,1.701 -0.12611,2.53193 l -1.82677,6.24434 z m 3.48461,-29.32075 c 1.24783,-0.35037 2.42913,-0.83053 3.55115,-1.43691 1.24822,-0.67733 2.07876,-1.98845 3.42535,-2.46864 1.44095,-0.51204 3.0081,-0.0671 4.48452,-0.2561 0.54347,-0.0629 1.08695,-0.29158 1.66549,-0.2561 0.63782,0.0323 1.27564,0.19321 1.85459,0.51204 0.25965,-0.86238 0.41327,-1.72437 0.41327,-2.62628 0,-1.72839 -0.48019,-3.42133 -1.43691,-4.8663 -2.01586,-2.33476 -4.99654,-3.64991 -8.10297,-3.52009 -3.16533,0.13031 -6.08308,1.69694 -7.93728,4.26032 -0.28739,1.21638 -0.22449,2.52386 0.19287,3.71283 0.28739,0.83054 0.7362,1.59857 1.31112,2.27187 l 0.54348,2.17714 0.0355,2.49606 z m 18.57579,-226.13133 2.56299,-0.54308 4.48087,-0.44873 0.83053,-2.20898 2.04732,0 c 0.54751,-0.16127 0.96477,-0.61041 1.09056,-1.15348 0.22449,-0.83094 -0.25609,-1.66551 -1.05508,-1.94894 l 0.44871,-3.59106 c 0.99223,-0.66927 1.1813,-2.04732 0.41769,-2.94075 -0.57896,-0.70878 -1.53567,-0.92931 -2.37024,-0.54751 -0.73661,0.48058 -1.63408,0.70878 -2.49645,0.57896 -0.99222,-0.13024 -1.89372,-0.6733 -2.49606,-1.47279 l -6.11452,-0.42132 2.04731,1.98845 1.53529,2.36622 -0.15708,3.77975 -0.77167,6.56326 z m 2.03564,191.58623 2.78351,0.80312 c 1.18491,0.28745 2.46458,0.15763 3.55153,-0.41728 0.86602,-0.44873 1.56674,-1.09059 2.04732,-1.92153 l 0.51164,-1.15347 1.82676,-1.34257 c -0.60595,-0.92931 -0.99219,-1.95297 -1.15346,-3.04355 -0.16127,-1.05511 -0.0945,-2.11021 0.16127,-3.13387 l -1.11802,-1.73243 c 0.12612,-0.51203 0.0945,-1.05551 -0.0984,-1.56714 -0.16127,-0.41728 -0.4451,-0.79949 -0.79948,-1.08655 l -2.43316,-0.22458 -1.63366,-0.51203 c -0.28738,-0.19272 -0.6733,-0.22417 -0.99219,-0.0313 -0.41366,0.252 -0.54348,0.76805 -0.35038,1.1813 l -0.73658,5.34688 c -0.6733,0.41728 -1.12204,1.08655 -1.31112,1.85822 -0.0984,0.38181 -0.0984,0.80313 -0.0322,1.18533 0.22062,0.57453 0.35034,1.21638 0.41366,1.82275 0.12998,1.3466 -0.0948,2.72061 -0.63782,3.96884 z"
     id="path17" />
</svg>
