<?xml version="1.0" encoding="UTF-8" standalone="no"?>
<!-- Created with Inkscape (http://www.inkscape.org/) -->

<svg
   xmlns:dc="http://purl.org/dc/elements/1.1/"
   xmlns:cc="http://creativecommons.org/ns#"
   xmlns:rdf="http://www.w3.org/1999/02/22-rdf-syntax-ns#"
   xmlns:svg="http://www.w3.org/2000/svg"
   xmlns="http://www.w3.org/2000/svg"
   xmlns:sodipodi="http://sodipodi.sourceforge.net/DTD/sodipodi-0.dtd"
   xmlns:inkscape="http://www.inkscape.org/namespaces/inkscape"
   id="svg17624"
   version="1.1"
   inkscape:version="0.48.4 r9939"
   width="244.48"
   height="244.47874"
   xml:space="preserve"
   sodipodi:docname="D-180-6-G.svg"><metadata
     id="metadata17630"><rdf:RDF><cc:Work
         rdf:about=""><dc:format>image/svg+xml</dc:format><dc:type
           rdf:resource="http://purl.org/dc/dcmitype/StillImage" /><dc:title></dc:title></cc:Work></rdf:RDF></metadata><defs
     id="defs17628"><inkscape:perspective
       sodipodi:type="inkscape:persp3d"
       inkscape:vp_x="0 : 0.5 : 1"
       inkscape:vp_y="0 : 1000 : 0"
       inkscape:vp_z="1 : 0.5 : 1"
       inkscape:persp3d-origin="0.5 : 0.33333333 : 1"
       id="perspective17632" /><clipPath
       clipPathUnits="userSpaceOnUse"
       id="clipPath17642"><path
         d="m -2,710 501,0 0,-711 -501,0 0,711 z"
         id="path17644"
         inkscape:connector-curvature="0" /></clipPath><clipPath
       clipPathUnits="userSpaceOnUse"
       id="clipPath17648"><path
         d="m 0,708.06 498,0 0,-708 -498,0 0,708 z"
         id="path17650"
         inkscape:connector-curvature="0" /></clipPath><clipPath
       clipPathUnits="userSpaceOnUse"
       id="clipPath17798"><path
         d="m -2,710 501,0 0,-711 -501,0 0,711 z"
         id="path17800"
         inkscape:connector-curvature="0" /></clipPath><clipPath
       clipPathUnits="userSpaceOnUse"
       id="clipPath17804"><path
         d="m 0,708.06 498,0 0,-708 -498,0 0,708 z"
         id="path17806"
         inkscape:connector-curvature="0" /></clipPath><clipPath
       id="Clip0"><path
         inkscape:connector-curvature="0"
         d="m 0,0 212.597,0 0,269.292 L 0,269.292 0,0 z"
         transform="translate(0.923828,0.879883)"
         id="path7" /></clipPath></defs><sodipodi:namedview
     pagecolor="#ffffff"
     bordercolor="#666666"
     borderopacity="1"
     objecttolerance="10"
     gridtolerance="10"
     guidetolerance="10"
     inkscape:pageopacity="0"
     inkscape:pageshadow="2"
     inkscape:window-width="1280"
     inkscape:window-height="1004"
     id="namedview17626"
     showgrid="false"
     inkscape:zoom="2.2322568"
     inkscape:cx="112.18162"
     inkscape:cy="129.86675"
     inkscape:window-x="-8"
     inkscape:window-y="-8"
     inkscape:window-maximized="1"
     inkscape:current-layer="g17634"
     fit-margin-top="0.2"
     fit-margin-left="0.2"
     fit-margin-right="0.2"
     fit-margin-bottom="0.2"
     showguides="true"
     inkscape:guide-bbox="true" /><g
     id="g17634"
     inkscape:groupmode="layer"
     inkscape:label="GG1999P002"
     transform="matrix(1.25,0,0,-1.25,544.98194,458.31923)"><path
       inkscape:connector-curvature="0"
       style="fill:#ffd520;fill-rule:evenodd;stroke:none;fill-opacity:1"
       d="m -343.37735,173.39238 -90.28804,90.288 c -1.43946,1.439 -2.16016,3.3111 -2.16016,5.1832 0,1.8721 0.7207,3.7441 2.16016,5.1836 l 90.28804,90.28804 c 1.4404,1.44043 3.3115,2.16016 5.1836,2.16016 1.8723,0 3.7442,-0.71973 5.1842,-2.16016 l 90.287,-90.28804 c 1.441,-1.4395 2.161,-3.3115 2.161,-5.1836 0,-1.8721 -0.72,-3.7442 -2.161,-5.1832 l -90.287,-90.288 c -1.44,-1.441 -3.3119,-2.16 -5.1842,-2.16 -1.8721,0 -3.7432,0.719 -5.1836,2.16 z"
       id="path11" /><path
       inkscape:connector-curvature="0"
       style="fill:#000000;fill-rule:evenodd;stroke:none"
       d="m -342.49939,174.31162 c 2.3828,-2.382 6.229,-2.382 8.6114,0 l 90.26,90.26 c 2.376,2.3759 2.383,6.2362 0,8.6181 l -90.252,90.25293 c -2.3764,2.37597 -6.2502,2.37597 -8.6262,0 l -90.25295,-90.25293 c -2.38184,-2.3819 -2.37598,-6.2422 0,-8.6181 l 90.25975,-90.26 z"
       id="path13" /><path
       inkscape:connector-curvature="0"
       style="fill:#ffd520;fill-rule:evenodd;stroke:none;fill-opacity:1"
       d="m -340.50823,176.31113 -90.25189,90.2578 c -1.26758,1.2682 -1.27441,3.3424 0,4.6188 l 90.25779,90.25882 c 1.2734,1.26758 3.3496,1.26758 4.6169,0 l 90.2579,-90.25882 c 1.275,-1.2764 1.275,-3.3506 0,-4.6188 l -90.2579,-90.2578 c -1.2731,-1.277 -3.3435,-1.277 -4.6169,0 l -0.006,0 z"
       id="path15" /><path
       inkscape:connector-curvature="0"
       style="fill:#000000;fill-rule:evenodd;stroke:none"
       d="m -349.42511,286.86355 6.6093,0.0176 -1.9297,2.1875 3.1153,-1.1241 -3.6651,4.8692 4.8809,-2.7373 -1.6621,7.0078 3.9463,-6.2676 2.4198,7.5625 0.22,-7.8984 4.789,3.9883 -3.671,-5.0401 4.367,0.208 -3.915,-2.041 0.922,-0.7265 6.286,0.0312 c 0.116,3.0537 2.554,5.498 5.603,5.626 3.218,0.1347 5.944,-2.3643 6.078,-5.584 l 8.943,0.0127 0.129,29.1338 -59.8261,0.0547 -0.0313,-22.2002 9.75,0.0429 6.6417,-7.123 z m 11.5166,-5.8721 -0.0284,0 -3.6025,0 0.8281,5.8213 -1.6553,-0.0176 -1.0576,-5.8037 -2.8437,0 -1.1426,-4.3515 3.1973,0 -1.2276,-6.7442 -3.749,0 -1.5478,-5.8898 4.2216,0 -1.4463,-7.953 -4.875,0 -1.7236,-6.542 5.4102,0 -1.9356,-10.641 -6.2773,0 -1.8516,-7.042 6.8447,0 -2.038,-11.203 -7.7569,0 -2.3252,-8.8091 8.4785,0 -1.8076,-9.936 5.0039,0.011 1.4131,9.925 13.4658,0 0.0284,0 13.4661,0 1.413,-9.925 5.005,-0.011 -1.807,9.936 8.478,0 -2.326,8.8091 -7.757,0 -2.038,11.203 6.846,0 -1.852,7.042 -6.277,0 -1.937,10.641 5.41,0 -1.723,6.542 -4.875,0 -1.446,7.953 4.222,0 -1.548,5.8898 -3.749,0 -1.228,6.7442 3.197,0 -1.142,4.3515 -2.843,0 -1.058,5.8037 -1.656,0.0176 0.827,-5.8213 -3.6021,0 z m -54.2852,0.4004 c -0.5801,2.9805 1.2715,5.9063 4.2148,6.6524 3.1651,0.8056 6.3663,-1.1973 7.0264,-4.3985 l 11.5215,2.1865 c -0.2383,1.0274 -0.1641,2.0899 0.208,3.0733 0.4512,1.1787 1.2822,2.1572 2.3828,2.7734 l -1.4541,-0.2568 c -0.5264,-0.0918 -1.0635,-0.0176 -1.5283,0.2383 -0.4815,0.2627 -0.9043,0.6777 -1.0078,1.2343 l -2.9317,15.0899 -15.3408,-2.9512 c -0.2617,-0.0488 -0.5068,-0.1767 -0.6777,-0.3789 -0.1885,-0.2207 -0.293,-0.4941 -0.2744,-0.7754 l -0.6416,-7.001 c 0.006,-0.2451 -0.0547,-0.4892 -0.1963,-0.6972 -0.1582,-0.2256 -0.3965,-0.3906 -0.6524,-0.4571 l -3.4707,-0.7587 c -0.458,-0.042 -0.8916,-0.2442 -1.209,-0.586 -0.3125,-0.3476 -0.4892,-0.7939 -0.4834,-1.2646 l 2.0645,-9.3164 -1.3008,-0.2803 0.5801,-2.8164 3.1709,0.6904 z m 54.291,-49.5639 0.0283,0 10.61,0 1.6,-11.203 -12.21,0 -0.0283,0 -12.2109,0 1.5986,11.203 10.6123,0 z m -0.006,7.042 -0.0284,0 -9.6084,0 1.5196,10.641 8.0888,0 0.0284,0 8.0901,0 1.519,-10.641 -9.6091,0 z m 0.006,25.136 0.0283,0 6.022,0 1.138,-7.953 -7.16,0 -0.0283,0 -7.1611,0 1.1377,7.953 6.0234,0 z m -0.006,5.8898 -0.0284,0 -5.1836,0 0.9571,6.7442 4.2265,0 0.0284,0 4.2271,0 0.957,-6.7442 -5.1841,0 z m -48.544,17.5781 c -2.7119,0.0684 -4.9805,-2.0859 -5.0557,-4.8056 -0.0683,-2.7119 2.087,-4.9795 4.8057,-5.0557 2.7119,-0.0683 4.9805,2.0869 5.0557,4.8057 0.0681,2.7119 -2.0871,4.9804 -4.8059,5.0556 z m 22.752,4.3204 c -2.712,0.0683 -4.9795,-2.087 -5.0557,-4.8057 -0.0684,-2.7119 2.0869,-4.9805 4.8057,-5.0566 2.7119,-0.0674 4.9804,2.0878 5.0556,4.8066 0.0684,2.7119 -2.0869,4.9795 -4.8056,5.0557 z m 42.9121,0 c -2.712,0.0683 -4.98,-2.087 -5.057,-4.8057 -0.067,-2.7119 2.087,-4.9805 4.807,-5.0566 2.712,-0.0674 4.979,2.0878 5.056,4.8066 0.068,2.7119 -2.087,4.9795 -4.806,5.0557 z m -30.9414,-4.9307 -4.9532,5.29 -4.7539,-0.0547 c 1.125,-0.4648 2.0528,-1.2822 2.6631,-2.3339 0.5137,-0.8858 0.7705,-1.8936 0.7461,-2.9141 l 6.2979,0.0127 z m -29.0881,11.2314 -6.8116,-1.4355 c -0.2324,-0.0488 -0.4765,0.0127 -0.6591,0.1523 -0.2139,0.1719 -0.3242,0.4405 -0.294,0.7159 l 0.2451,4.4472 c 0.0235,0.3848 0.2198,0.7383 0.4952,1.002 0.3164,0.3232 0.7685,0.4277 1.2031,0.5254 l 4.79,0.9951 1.0313,-6.4024 z"
       id="path17" /></g></svg>