<?xml version="1.0" encoding="UTF-8" standalone="no"?>
<svg
   xmlns:dc="http://purl.org/dc/elements/1.1/"
   xmlns:cc="http://creativecommons.org/ns#"
   xmlns:rdf="http://www.w3.org/1999/02/22-rdf-syntax-ns#"
   xmlns:svg="http://www.w3.org/2000/svg"
   xmlns="http://www.w3.org/2000/svg"
   xmlns:sodipodi="http://sodipodi.sourceforge.net/DTD/sodipodi-0.dtd"
   xmlns:inkscape="http://www.inkscape.org/namespaces/inkscape"
   width="245.26849"
   height="245.25999"
   viewBox="0 0 692.20224 692.17822"
   version="1.1"
   id="svg2"
   inkscape:version="0.48.4 r9939"
   sodipodi:docname="D-070-50.svg">
  <metadata
     id="metadata62">
    <rdf:RDF>
      <cc:Work
         rdf:about="">
        <dc:format>image/svg+xml</dc:format>
        <dc:type
           rdf:resource="http://purl.org/dc/dcmitype/StillImage" />
        <dc:title></dc:title>
      </cc:Work>
    </rdf:RDF>
  </metadata>
  <defs
     id="defs60" />
  <sodipodi:namedview
     pagecolor="#ffffff"
     bordercolor="#666666"
     borderopacity="1"
     objecttolerance="10"
     gridtolerance="10"
     guidetolerance="10"
     inkscape:pageopacity="0"
     inkscape:pageshadow="2"
     inkscape:window-width="1280"
     inkscape:window-height="1004"
     id="namedview58"
     showgrid="false"
     fit-margin-top="0.2"
     fit-margin-left="0.2"
     fit-margin-right="0.2"
     fit-margin-bottom="0.2"
     inkscape:zoom="2.0369931"
     inkscape:cx="63.728703"
     inkscape:cy="118.14098"
     inkscape:window-x="-8"
     inkscape:window-y="-8"
     inkscape:window-maximized="1"
     inkscape:current-layer="svg2" />
  <polygon
     points="315,545 235,375 315,205 395,375 "
     id="polygon10"
     style="fill:none;stroke:#ffffff;stroke-width:40"
     transform="translate(1073.6039,51.778156)" />
  <!-- draw the bicycle -->
  <!-- RIGHT -->
  <!-- LANE -->
  <!-- ONLY -->
  <path
     inkscape:connector-curvature="0"
     style="fill:#ffd520;fill-rule:evenodd;stroke:none;fill-opacity:1"
     d="M 326.90719,683.65514 8.5252069,365.27317 c -10.6143499,-10.58333 -10.6143499,-27.77806 0,-38.38928 L 326.90719,8.5019252 c 10.58333,-10.58333 27.80665,-10.58333 38.38999,0 L 683.67914,326.88389 c 10.61156,10.61122 10.61156,27.80595 0,38.38928 L 365.29718,683.65514 c -10.61509,10.61155 -27.77914,10.61155 -38.38999,0 z"
     id="path11" />
  <path
     inkscape:connector-curvature="0"
     style="fill:#000000;fill-rule:evenodd;stroke:none"
     d="m 330.93456,679.75302 c 8.40246,8.40669 21.929,8.40669 30.33324,0 L 679.68152,361.28639 c 8.38553,-8.33369 8.4067,-21.94843 0,-30.35442 L 361.28897,12.491335 c -8.40424,-8.3818998 -21.99677,-8.3818998 -30.37877,0 L 12.518057,330.93197 c -8.4060201,8.40599 -8.4060201,22.02073 0,30.35442 L 330.93456,679.75302 z"
     id="path13" />
  <path
     inkscape:connector-curvature="0"
     style="fill:#ffd520;fill-rule:evenodd;stroke:none;fill-opacity:1"
     d="M 337.9556,672.6498 19.570197,354.24031 c -4.4752,-4.47322 -4.49587,-11.79124 0,-16.2941 L 337.9556,19.533135 c 4.54062,-4.47175 11.79618,-4.47175 16.28741,0 L 672.63096,337.94621 c 4.51908,4.50286 4.51908,11.82088 0,16.2941 L 354.24301,672.6498 c -4.51556,4.50497 -11.74679,4.50497 -16.28741,0 z"
     id="path15-0" />
  <path
     inkscape:connector-curvature="0"
     style="fill:#000000;fill-rule:evenodd;stroke:none"
     d="M 346.0998,63.954205 245.42019,155.5766 c -2.96615,2.31845 -3.41735,6.6421 -1.00929,9.5324 1.70532,2.04294 4.45805,2.88008 7.00722,2.14278 l 73.45645,-19.20981 0.11712,58.01219 21.10811,-0.12418 21.11129,0.12418 0.11289,-58.01219 73.45892,19.20981 c 2.54706,0.7373 5.29873,-0.0998 7.0097,-2.14278 2.40594,-2.8903 1.95439,-7.21395 -1.01247,-9.5324 L 346.0998,63.954205 z"
     id="path17" />
  <path
     inkscape:connector-curvature="0"
     style="fill:#ffffff;fill-rule:evenodd;stroke:none"
     d="m 221.42178,513.12782 0,-271.14148 c 0,-11.16189 9.0297,-20.31577 20.19159,-20.31577 l 208.56401,0 c 11.15836,0 20.31294,9.15388 20.31294,20.31577 l 0,271.14148 c 0,11.15836 -9.02758,20.31648 -20.31294,20.31648 l -208.56401,0 c -11.16189,0 -20.19159,-9.15812 -20.19159,-20.31648 z"
     id="path19" />
  <path
     inkscape:connector-curvature="0"
     style="fill:#000000;fill-rule:evenodd;stroke:none"
     d="m 225.18733,512.87735 c 0,9.28158 7.52052,16.80633 16.67757,16.80633 l 208.55942,0 c 9.27806,0 16.80634,-7.52475 16.80634,-16.80633 l 0,-271.14571 c 0,-9.27771 -7.52828,-16.79858 -16.80634,-16.79858 l -208.55942,0 c -9.15705,0 -16.67757,7.52087 -16.67757,16.79858 l 0,271.14571 z"
     id="path21" />
  <path
     inkscape:connector-curvature="0"
     style="fill:#ffffff;fill-rule:evenodd;stroke:none"
     d="m 231.3299,512.87735 0,-271.14571 c 0,-5.89139 4.76461,-10.65601 10.535,-10.65601 l 208.55942,0 c 5.89845,0 10.66095,4.76462 10.66095,10.65601 l 0,271.14571 c 0,5.89492 -4.7625,10.66447 -10.66095,10.66447 l -208.55942,0 c -5.77039,-0.13038 -10.535,-4.76955 -10.535,-10.66447 z"
     id="path23" />
  <path
     inkscape:connector-curvature="0"
     style="fill:#000000;fill-rule:evenodd;stroke:none"
     d="m 367.40512,473.37332 1.25236,1.25589 c 5.3975,5.39044 15.05303,9.65553 25.70692,9.65553 12.9152,0 25.3365,-7.27428 31.10442,-17.31081 9.779,-16.55233 11.28889,-57.18528 11.28889,-61.32336 0,-35.36598 -8.4067,-52.42279 -9.40858,-54.17609 -6.64281,-12.29149 -18.68664,-19.56754 -32.73426,-19.56754 -7.0238,0 -13.91708,2.13255 -19.812,5.7704 -14.42155,9.0297 -17.93522,23.83014 -20.44347,48.4117 -1.12889,10.40694 -1.62983,20.18594 -1.62983,26.8358 0,19.81553 4.13808,40.37895 5.64091,44.77456 1.88031,5.76439 4.76956,11.28889 9.03464,15.67392 z"
     id="path25" />
  <path
     inkscape:connector-curvature="0"
     style="fill:#000000;fill-rule:evenodd;stroke:none"
     d="m 274.22133,481.02507 20.4396,0 0,-4.51556 c 0,-39.63105 17.68368,-89.79959 35.74661,-113.4992 1.50884,-2.0073 3.3828,-3.76061 5.1435,-5.76791 l 0,-22.07297 -80.01247,0 0,20.81708 55.0492,0 -1.12993,1.75683 c -5.38833,9.02758 -10.28031,18.30917 -14.5454,27.84122 l -8.65397,20.94442 c -5.01616,14.29809 -9.40154,33.85962 -11.15873,52.04531 l -0.87841,16.92981 c 0,1.88383 0,3.76414 0,5.52097 z"
     id="path27" />
  <path
     inkscape:connector-curvature="0"
     style="fill:#ffffff;fill-rule:evenodd;stroke:none"
     d="m 380.44379,456.06954 -1.12889,-1.88736 c -0.62442,-1.37583 -6.39586,-18.42911 -6.39586,-42.89073 0,-21.57236 4.01108,-40.259 6.02192,-46.02692 3.38314,-9.27805 9.27805,-12.78819 15.55044,-12.78819 4.26156,0 8.40317,1.7533 11.41236,4.63903 3.01273,2.88219 7.14728,8.02569 9.28159,27.96822 0.87841,6.64281 1.25236,13.16567 1.25236,19.81553 0,20.31295 -3.63361,38.49864 -5.89492,45.0215 -3.50661,10.033 -9.52853,13.79714 -16.55233,13.79714 -6.14539,0 -10.78795,-2.88572 -13.54667,-7.64822 z"
     id="path29" />
  <path
     inkscape:connector-curvature="0"
     style="fill:#000000;fill-rule:evenodd;stroke:none"
     d="m 277.856,291.65076 5.64657,0 3.25896,-9.90812 10.53499,0 3.38666,9.90812 5.51533,0 -11.53758,-33.98556 -5.26734,0 -11.53759,33.98556 z"
     id="path31" />
  <path
     inkscape:connector-curvature="0"
     style="fill:#000000;fill-rule:evenodd;stroke:none"
     d="m 418.82249,291.65076 5.2705,0 0,-19.69206 7.89516,19.69206 7.77875,-19.56471 0,19.56471 5.39045,0 0,-33.98556 -5.39045,0 -7.77875,19.5647 -7.89516,-19.5647 -5.2705,0 0,33.98556 z"
     id="path33" />
  <path
     inkscape:connector-curvature="0"
     style="fill:#000000;fill-rule:evenodd;stroke:none"
     d="m 247.2564,291.65076 5.26415,0 0,-19.69206 7.90328,19.69206 7.77558,-19.56471 0,19.56471 5.26732,0 0,-33.98556 -5.26732,0 -7.77558,19.5647 -7.90328,-19.5647 -5.26415,0 0,33.98556 z"
     id="path35" />
  <path
     inkscape:connector-curvature="0"
     style="fill:#000000;fill-rule:evenodd;stroke:none"
     d="m 353.35751,291.65076 5.26697,0 0,-19.69206 7.90223,19.56469 7.77169,-19.43734 0,19.56471 5.2705,0 0,-33.98556 -5.2705,0 -7.77169,19.5647 -7.90223,-19.5647 -5.26697,0 0,33.98556 z"
     id="path37" />
  <path
     inkscape:connector-curvature="0"
     style="fill:#000000;fill-rule:evenodd;stroke:none"
     d="m 388.09554,257.6652 0,24.5805 c 0.37747,5.38833 5.39044,10.15611 11.16189,10.15611 6.26886,0 11.28536,-4.76778 11.53583,-11.28606 l 0,-23.45055 -5.13997,0 0,23.45055 c 0,3.13867 -2.88572,6.01522 -6.14892,6.01522 -2.00377,0 -4.00755,-0.99907 -5.13997,-2.75274 -0.62442,-0.88195 -1.00542,-1.88101 -1.00542,-3.51401 l 0,-23.19902 -5.26344,0 z"
     id="path39" />
  <path
     inkscape:connector-curvature="0"
     style="fill:#000000;fill-rule:evenodd;stroke:none"
     d="m 310.58777,291.65076 5.90127,0 5.51567,-11.5376 5.51569,11.5376 5.89455,0 -8.52664,-17.55952 7.90293,-16.42604 -5.89455,0 -4.89198,10.28347 -5.01614,-10.28347 -5.77392,0 7.77911,16.42604 -8.40599,17.55952 z"
     id="path41" />
  <path
     inkscape:connector-curvature="0"
     style="fill:#ffffff;fill-rule:evenodd;stroke:none"
     d="m 288.64254,276.47178 3.3863,-10.15259 3.51403,10.15259 -6.90033,0 z"
     id="path43" />
  <path
     inkscape:connector-curvature="0"
     style="fill:#000000;fill-rule:evenodd;stroke:none"
     d="m 339.56108,291.65076 5.27083,0 0,-33.98556 -5.27083,0 0,33.98556 z"
     id="path45" />
</svg>
