<?xml version="1.0" encoding="UTF-8" standalone="no"?>
<!-- Created with Inkscape (http://www.inkscape.org/) -->

<svg
   width="604"
   height="904"
   viewBox="0 0 604 904.00003"
   version="1.1"
   id="svg5"
   sodipodi:docname="drawing2.svg"
   inkscape:version="1.2.2 (732a01da63, 2022-12-09)"
   xmlns:inkscape="http://www.inkscape.org/namespaces/inkscape"
   xmlns:sodipodi="http://sodipodi.sourceforge.net/DTD/sodipodi-0.dtd"
   xmlns="http://www.w3.org/2000/svg"
   xmlns:svg="http://www.w3.org/2000/svg">
  <sodipodi:namedview
     id="namedview7"
     pagecolor="#ffffff"
     bordercolor="#111111"
     borderopacity="1"
     inkscape:pageshadow="0"
     inkscape:pageopacity="0"
     inkscape:pagecheckerboard="1"
     inkscape:document-units="px"
     showgrid="false"
     units="px"
     inkscape:showpageshadow="0"
     inkscape:deskcolor="#d1d1d1"
     inkscape:zoom="0.834386"
     inkscape:cx="672.35069"
     inkscape:cy="435.05044"
     inkscape:window-width="1920"
     inkscape:window-height="1057"
     inkscape:window-x="-8"
     inkscape:window-y="-8"
     inkscape:window-maximized="1"
     inkscape:current-layer="layer1" />
  <defs
     id="defs2" />
  <g
     inkscape:label="Lager 1"
     inkscape:groupmode="layer"
     id="layer1"
     transform="translate(0,208)">
    <rect
       style="fill:#000000;fill-rule:evenodd;stroke:none;stroke-width:1.61882;stroke-linecap:round;stroke-linejoin:bevel"
       id="rect137"
       width="602"
       height="902"
       x="1"
       y="-207"
       rx="51"
       ry="51" />
    <rect
       style="fill:#ffffff;fill-rule:evenodd;stroke:none;stroke-width:1.61434;stroke-linecap:round;stroke-linejoin:bevel"
       id="rect299"
       width="600"
       height="900"
       x="2"
       y="-206"
       rx="50"
       ry="50" />
    <rect
       style="fill:#000000;fill-rule:evenodd;stroke:none;stroke-width:1.56948;stroke-linecap:round;stroke-linejoin:bevel"
       id="rect301"
       width="580"
       height="880"
       x="12"
       y="-196"
       rx="40"
       ry="40" />
    <rect
       style="fill:#ffffff;fill-rule:evenodd;stroke:none;stroke-width:1.50207;stroke-linecap:round;stroke-linejoin:bevel"
       id="rect303"
       width="550"
       height="850"
       x="27"
       y="-181"
       rx="25"
       ry="25" />
    <path
       d="m 109,510.99984 h 16.17044 v -28.70905 l 19.30358,-0.0839 13.05701,28.79315 h 17.88179 l -14.29273,-31.81205 c 8.6545,-4.58804 14.31051,-13.81342 14.31051,-24.11595 0,-14.97905 -11.92162,-27.07087 -26.55408,-27.07087 H 109 Z m 119.87277,-15.38199 c -13.37768,-0.23719 -18.13515,-15.43445 -18.13515,-25.01278 0,-8.8402 3.30139,-16.61534 6.60343,-20.39253 3.5046,-3.9979 7.38195,-5.59868 11.22629,-5.59868 10.90433,0 18.0507,12.07657 18.0507,24.91157 0,6.69542 -1.57482,12.56301 -4.01324,16.83225 -3.84244,6.71252 -8.71928,9.19058 -13.73203,9.26017 z m -0.0176,16.61215 c 4.01388,0 9.146,-1.16375 13.71742,-3.56023 1.55767,-0.82478 20.87839,-11.04632 20.87839,-39.06084 0,-9.15838 -2.42129,-17.87714 -5.67061,-23.69789 -6.99524,-12.59778 -18.3752,-18.70504 -29.00902,-18.70504 -7.73947,0 -15.86819,3.24149 -22.70912,10.35693 -7.02762,7.35261 -12.17434,19.43109 -12.17434,32.58486 0,22.36393 14.29273,42.08221 34.96728,42.08221 z m 53.25675,-84.227 v 50.73008 c 0.0171,18.65569 15.01918,33.44508 33.19116,33.44508 18.23677,0 33.20642,-14.9424 33.20642,-33.61266 v -0.0332 0 L 348.46,428.00264 h -16.19028 l 0.0171,50.54677 c 0.0172,9.57892 -7.67216,17.20348 -16.9839,17.20348 -9.38349,0 -17.02136,-7.60748 -17.00358,-17.06754 l 0.0692,-50.68271 z m 101.53377,82.99684 h 16.15522 v -66.42081 l 22.48876,0.0669 -0.0176,-16.64507 h -61.24831 l -0.0172,16.62736 22.60687,0.0518 z m 51.15552,0 H 496 v -16.53123 l -45.11026,-0.0494 0.0521,-19.34509 24.50238,-0.0688 -0.0699,-16.47682 -24.41792,0.0665 v -13.96646 l 43.82312,-0.0332 -0.0843,-16.59573 h -59.89415 z m -309.64519,-45.48941 -0.0348,-20.59489 23.90928,-0.0839 c 5.40264,-0.0142 10.05851,4.45459 10.05851,10.30503 0,5.66769 -4.41775,10.32468 -9.98866,10.3392"
       style="fill:#000000;fill-opacity:1;fill-rule:evenodd;stroke:none;stroke-width:0.633741"
       id="path1587"
       sodipodi:nodetypes="ccccccssscccscssccscscscssccssccccsssccccccccccccccccccccccccccssc" />
    <path
       d="m 133.28391,637 h 61.22551 v -16.54246 l -45.12995,-0.0494 0.0495,-19.34371 24.51562,-0.0665 -0.0699,-16.47596 -24.42858,0.0665 v -13.96106 l 43.84478,-0.0331 -0.087,-16.59232 h -59.92006 z m 96.54794,-45.4973 -0.0343,-20.58882 23.91972,-0.0835 c 5.405,-0.0189 10.0629,4.45111 10.0629,10.30293 0,5.66395 -4.41967,10.32002 -9.99365,10.3371 z M 213.70454,637 h 16.14256 v -28.71782 l 19.31391,-0.0868 13.06081,28.80447 h 17.8896 l -14.29898,-31.82017 c 8.65829,-4.5871 14.31614,-13.8106 14.31614,-24.11355 0,-14.97412 -11.9262,-27.06535 -26.56251,-27.06535 h -39.89648 z m 89.71863,0 h 16.2817 l -0.052,-46.71019 L 341.88016,637 364.12273,590.2209 364.13983,637 h 16.24739 l -0.0844,-82.99907 h -16.95955 l -21.48023,45.10709 -21.43068,-45.10709 h -16.8725 z m 101.96819,0 h 61.22551 v -16.54246 l -45.12995,-0.0494 0.0495,-19.34371 24.51308,-0.0665 -0.0667,-16.47596 -24.43176,0.0665 v -13.96106 l 43.84477,-0.0331 -0.0844,-16.59232 h -59.92002 z m 80.3857,0 H 547 v -16.54246 l -45.12992,-0.0494 0.0495,-19.34371 24.5156,-0.0665 -0.0691,-16.47596 -24.42859,0.0665 v -13.96106 l 43.84413,-0.0331 -0.0843,-16.59232 h -59.92005 z m -412.361689,0 -0.06673,-34.53487 25.446305,-0.0189 -0.01761,-16.74534 -25.41136,0.084 -0.03431,-15.15944 44.943804,-0.0331 L 118.20554,554 H 57 v 83"
       style="fill:#000000;fill-opacity:1;fill-rule:evenodd;stroke:none;stroke-width:0.633816"
       id="path1589"
       sodipodi:nodetypes="cccccccccccccccssscccccccsssccccccccccccccccccccccccccccccccccccccccccccccccccc" />
    <path
       d="m 428.89995,531.9 -10.45995,15 h 22 l 13.72012,-15"
       style="fill:#000000;fill-opacity:1;fill-rule:evenodd;stroke:none;stroke-width:0.634108"
       id="path1585"
       sodipodi:nodetypes="cccc" />
    <circle
       style="fill:#ee2a2a;fill-opacity:1;fill-rule:evenodd;stroke:none;stroke-width:0.982978;stroke-linecap:round;stroke-linejoin:bevel"
       id="path108"
       cx="302"
       cy="103"
       r="260" />
    <circle
       style="fill:#ffffff;fill-rule:evenodd;stroke:none;stroke-width:0.873338;stroke-linecap:round;stroke-linejoin:bevel"
       id="circle922"
       cx="302"
       cy="103"
       r="231" />
    <path
       style="fill:#ee2a2a;fill-opacity:1;fill-rule:evenodd;stroke:none;stroke-width:0.916816;stroke-linecap:round;stroke-linejoin:bevel"
       id="circle1710"
       sodipodi:type="arc"
       sodipodi:cx="302"
       sodipodi:cy="103"
       sodipodi:rx="242.5"
       sodipodi:ry="242.5"
       sodipodi:start="3.338745"
       sodipodi:end="6.0860329"
       sodipodi:arc-type="chord"
       d="M 64.197626,55.499673 A 242.5,242.5 0 0 1 302,-139.5 242.5,242.5 0 0 1 539.80237,55.499658 Z"
       sodipodi:open="true" />
    <path
       style="fill:#ee2a2a;fill-opacity:1;fill-rule:evenodd;stroke:none;stroke-width:0.916816;stroke-linecap:round;stroke-linejoin:bevel"
       id="path1838"
       sodipodi:type="arc"
       sodipodi:cx="302"
       sodipodi:cy="103"
       sodipodi:rx="242.5"
       sodipodi:ry="242.5"
       sodipodi:start="0.19715239"
       sodipodi:end="2.9444403"
       sodipodi:arc-type="chord"
       d="M 539.80237,150.50034 A 242.5,242.5 0 0 1 302,345.5 242.5,242.5 0 0 1 64.197627,150.50033 Z"
       sodipodi:open="true" />
  </g>
</svg>
