<?xml version="1.0" encoding="UTF-8" standalone="no"?>
<svg
   xmlns:dc="http://purl.org/dc/elements/1.1/"
   xmlns:cc="http://creativecommons.org/ns#"
   xmlns:rdf="http://www.w3.org/1999/02/22-rdf-syntax-ns#"
   xmlns:svg="http://www.w3.org/2000/svg"
   xmlns="http://www.w3.org/2000/svg"
   xmlns:sodipodi="http://sodipodi.sourceforge.net/DTD/sodipodi-0.dtd"
   xmlns:inkscape="http://www.inkscape.org/namespaces/inkscape"
   width="181.53551"
   height="226.50999"
   viewBox="0 0 512.33359 639.26157"
   version="1.1"
   id="svg2"
   inkscape:version="0.48.4 r9939"
   sodipodi:docname="P-070-2-40.svg">
  <metadata
     id="metadata62">
    <rdf:RDF>
      <cc:Work
         rdf:about="">
        <dc:format>image/svg+xml</dc:format>
        <dc:type
           rdf:resource="http://purl.org/dc/dcmitype/StillImage" />
        <dc:title></dc:title>
      </cc:Work>
    </rdf:RDF>
  </metadata>
  <defs
     id="defs60" />
  <sodipodi:namedview
     pagecolor="#ffffff"
     bordercolor="#666666"
     borderopacity="1"
     objecttolerance="10"
     gridtolerance="10"
     guidetolerance="10"
     inkscape:pageopacity="0"
     inkscape:pageshadow="2"
     inkscape:window-width="1280"
     inkscape:window-height="1004"
     id="namedview58"
     showgrid="false"
     fit-margin-top="0.8"
     fit-margin-left="0.8"
     fit-margin-right="0.8"
     fit-margin-bottom="0.8"
     inkscape:zoom="2.2174225"
     inkscape:cx="80.959177"
     inkscape:cy="154.79756"
     inkscape:window-x="-8"
     inkscape:window-y="-8"
     inkscape:window-maximized="1"
     inkscape:current-layer="svg2"
     showguides="true"
     inkscape:guide-bbox="true" />
  <polygon
     points="235,375 315,205 395,375 315,545 "
     id="polygon10"
     style="fill:none;stroke:#ffffff;stroke-width:40"
     transform="translate(1323.626,364.88959)" />
  <!-- draw the bicycle -->
  <!-- RIGHT -->
  <!-- LANE -->
  <!-- ONLY -->
  <path
     inkscape:connector-curvature="0"
     style="fill:#ffffff;fill-rule:evenodd;stroke:#000000;stroke-opacity:1;stroke-width:3.10444473;stroke-miterlimit:4;stroke-dasharray:none"
     d="m 2.279878,594.68461 c -0.0207,23.40328 18.91701,42.31922 42.27457,42.31922 l 423.184512,0 c 23.36094,0 42.3157,-18.91594 42.33686,-42.31922 l -0.0226,-550.110787 c 0,-23.3577 -18.95475,-42.3160495 -42.31569,-42.3160495 l -423.184512,0 c -23.37823,0 -42.29524,18.9583495 -42.29524,42.3160495 l 0,550.110787 0.0207,0 z"
     id="path11" />
  <path
     inkscape:connector-curvature="0"
     style="fill:#000000;fill-rule:evenodd;stroke:none"
     d="m 10.575668,594.6856 c 0,18.79247 15.21354,33.98308 33.99977,33.98308 l 423.164982,0 c 18.76778,0 33.97956,-15.19061 33.97956,-33.98308 l 0,-550.111667 c 0,-18.78962 -15.21178,-33.97903 -33.97956,-33.97903 l -423.164982,0 c -18.76556,0 -33.99977,15.18941 -33.99977,33.97903 l 0,550.111667 z"
     id="path13" />
  <path
     inkscape:connector-curvature="0"
     style="fill:#ffffff;fill-rule:evenodd;stroke:none"
     d="m 23.102028,594.64699 c -0.0207,11.88861 9.60494,21.49122 21.47341,21.53708 l 423.164702,0 c 11.87098,0 21.47712,-9.64847 21.47712,-21.53708 l 0,-550.073057 c 0,-11.84776 -9.62731,-21.49401 -21.47712,-21.49401 l -423.164702,0 c -11.86847,0 -21.47341,9.64625 -21.49408,21.49401 l 0,550.111857 0.0207,-0.0387 z"
     id="path15" />
  <path
     inkscape:connector-curvature="0"
     style="fill:#000000;fill-rule:evenodd;stroke:none"
     d="m 55.492858,145.26024 10.79006,0 0,-39.71149 15.930033,39.71149 15.847485,-39.54639 0,39.54639 10.727964,0 0.0209,-68.722877 -10.769598,0 -15.826671,39.670217 -15.888763,-39.625417 -10.83133,0 0,68.678077 z m 83.932892,-30.53397 7.04179,-20.625867 6.98642,20.625867 -14.02821,0 z m -21.81437,30.53397 11.38273,0 6.83507,-19.88855 21.30425,0 6.79026,19.88855 11.32064,0 -23.54721,-68.722877 -10.62108,0 -23.46466,68.722877 z m 66.35256,0 11.93377,0 11.19329,-23.18879 11.18941,23.18879 11.93376,0 -17.13935,-35.54659 16.04045,-33.131487 -11.95776,0 -10.08733,20.71194 -9.98749,-20.75674 -11.89249,0 15.90957,33.176287 -17.13583,35.54659 z m 58.80101,0 10.70046,0 -0.0209,-68.722877 -10.67964,0 0,68.722877 z m 28.17742,0 10.79325,0 0,-39.71149 15.9304,39.69068 15.85064,-39.52558 0,39.54639 10.74528,0 0,-68.722877 -10.76574,0 -15.83018,39.670217 -15.88913,-39.625417 -10.83452,0 0,68.678077 z m 70.50018,-68.722877 0.10697,49.826687 c 0.76129,10.92095 10.72797,20.46359 22.6395,20.46359 12.65061,0 22.80708,-9.54264 23.29392,-22.72701 l 0.0197,-47.518467 -10.53747,0 -0.0198,47.349487 c 0,6.47665 -5.7538,12.2301 -12.39661,12.2301 -4.0393,0 -8.12447,-2.05317 -10.38931,-5.41584 -1.3342,-1.96709 -2.03022,-3.99945 -2.13676,-7.13105 l 0,-47.077497 -10.58017,0 z m 62.28928,68.722877 10.76889,0 0,-39.71149 15.95614,39.71149 15.82209,-39.54639 0,39.54639 10.74914,0 0,-68.722877 -10.77031,-0.0203 -15.82561,39.690677 -15.88911,-39.625417 -10.82887,0 0.0169,68.678077 z"
     id="path17" />
  <path
     inkscape:connector-curvature="0"
     style="fill:#000000;fill-rule:evenodd;stroke:none"
     d="m 65.393918,511.00653 c 0.889,1.143 1.83621,2.2225 2.81128,3.25967 l 3.85163,3.55247 c 12.254092,11.32064 32.838672,19.88961 57.019832,19.88961 55.118,0 97.26542,-46.6972 97.26542,-116.39198 0,-54.75817 -36.2839,-87.89177 -79.34396,-87.89177 -15.18955,0 -26.15177,3.62091 -33.17628,7.8479 l 2.07715,-65.46041 97.62385,0 0,-42.06099 -138.058882,0 -5.48111,154.91921 42.505492,5.03414 c 3.26249,-3.59481 6.13939,-7.59883 9.9254,-10.66095 7.17268,-5.715 16.29199,-9.1828 25.43175,-9.1828 18.99956,0 37.97865,15.95261 37.97865,47.15934 0,24.14411 -8.50582,46.44319 -16.14346,56.51147 -9.58427,12.446 -25.19751,19.80848 -39.46032,19.80848 -15.59243,0 -30.403091,-7.80698 -36.54213,-15.06714 l -28.284312,28.73375 z m 267.332572,-31.98989 -2.07047,-3.85234 c -1.48483,-2.81164 -13.081,-37.17925 -13.081,-86.83273 0,-43.73457 8.14775,-82.00955 12.33701,-93.5609 6.81425,-18.85176 18.70673,-25.95882 31.39826,-25.95882 8.54781,0 17.13795,3.4036 23.25159,9.37049 6.07836,5.92207 14.26281,16.39853 18.81011,57.01982 1.6757,13.33255 2.51884,26.72399 2.51884,40.0978 0,41.21503 -7.40481,78.09443 -11.99798,91.2742 -7.10847,20.39762 -19.29342,27.99292 -33.66206,27.99292 -12.43894,0 -21.76814,-5.715 -27.5043,-15.55044 z m -26.36521,35.10139 2.66983,2.65994 c 10.85215,10.87614 30.46871,19.59681 52.13102,19.59681 26.21492,0 51.2445,-14.93661 63.09501,-35.29189 19.59681,-33.55975 22.84942,-115.90515 22.84942,-124.30479 0,-71.83087 -17.11678,-106.3851 -19.14525,-110.14712 -13.48034,-24.88389 -37.76557,-39.5912 -66.39702,-39.5912 -14.1305,0 -28.14179,4.34094 -40.09283,11.74433 -29.32467,18.17652 -36.43526,48.20038 -41.62003,98.34388 -2.21898,21.17866 -3.15243,40.94128 -3.15243,54.41739 0,40.32956 8.23033,81.90442 11.2963,90.7274 3.9998,11.70164 9.88061,22.91644 18.36598,31.84525 z"
     id="path19" />
</svg>
