<?xml version="1.0" encoding="UTF-8" standalone="no"?>
<svg
   xmlns:dc="http://purl.org/dc/elements/1.1/"
   xmlns:cc="http://creativecommons.org/ns#"
   xmlns:rdf="http://www.w3.org/1999/02/22-rdf-syntax-ns#"
   xmlns:svg="http://www.w3.org/2000/svg"
   xmlns="http://www.w3.org/2000/svg"
   xmlns:sodipodi="http://sodipodi.sourceforge.net/DTD/sodipodi-0.dtd"
   xmlns:inkscape="http://www.inkscape.org/namespaces/inkscape"
   width="81.799622"
   height="104.12013"
   viewBox="0 0 230.85671 293.85016"
   version="1.1"
   id="svg2"
   inkscape:version="0.48.4 r9939"
   sodipodi:docname="P-020-2.svg">
  <metadata
     id="metadata62">
    <rdf:RDF>
      <cc:Work
         rdf:about="">
        <dc:format>image/svg+xml</dc:format>
        <dc:type
           rdf:resource="http://purl.org/dc/dcmitype/StillImage" />
        <dc:title></dc:title>
      </cc:Work>
    </rdf:RDF>
  </metadata>
  <defs
     id="defs60" />
  <sodipodi:namedview
     pagecolor="#ffffff"
     bordercolor="#666666"
     borderopacity="1"
     objecttolerance="10"
     gridtolerance="10"
     guidetolerance="10"
     inkscape:pageopacity="0"
     inkscape:pageshadow="2"
     inkscape:window-width="1280"
     inkscape:window-height="1004"
     id="namedview58"
     showgrid="false"
     fit-margin-top="0.4"
     fit-margin-left="0.4"
     fit-margin-right="0.4"
     fit-margin-bottom="0.4"
     inkscape:zoom="4.4348449"
     inkscape:cx="26.277239"
     inkscape:cy="71.85"
     inkscape:window-x="-8"
     inkscape:window-y="-8"
     inkscape:window-maximized="1"
     inkscape:current-layer="svg2" />
  <polygon
     points="395,375 315,545 235,375 315,205 "
     id="polygon10"
     style="fill:none;stroke:#ffffff;stroke-width:40"
     transform="translate(733.97813,-348.86381)" />
  <!-- draw the bicycle -->
  <!-- RIGHT -->
  <!-- LANE -->
  <!-- ONLY -->
  <path
     inkscape:connector-curvature="0"
     style="fill:#ffffff;fill-opacity:1;fill-rule:evenodd;stroke:#000000;stroke-opacity:1;stroke-width:1.12888892;stroke-miterlimit:4;stroke-dasharray:none"
     d="m 1.1288883,252.58925 0,-211.328357 c 0,-22.352 17.7799997,-40.1320041 40.1319997,-40.1320041 l 147.826942,0 c 22.352,0 40.64,17.7800041 40.64,40.1320041 l 0,211.328357 c 0,22.352 -18.288,40.13201 -40.64,40.13201 l -147.826942,0 c -21.84542,0 -40.1319997,-17.78001 -40.1319997,-40.13201 z"
     id="path17" />
  <path
     inkscape:connector-curvature="0"
     style="fill:#000000;fill-opacity:1;fill-rule:evenodd;stroke:none"
     d="m 4.0848083,252.50811 c 0,20.60928 16.6500497,37.25688 37.2550997,37.25688 l 147.949002,0 c 20.58105,0 37.26039,-16.6476 37.26039,-37.25688 l 0,-211.347407 c 0,-20.58071 -16.67934,-37.2586341 -37.26039,-37.2586341 l -147.949002,0 c -20.60505,0 -37.2550997,16.6779241 -37.2550997,37.2586341 l 0,211.347407 z"
     id="path21-8" />
  <path
     inkscape:connector-curvature="0"
     style="fill:#ffffff;fill-opacity:1;fill-rule:evenodd;stroke:none"
     d="m 9.0699083,252.50811 0,-211.347407 c 0,-17.81458 14.4349597,-32.2700041 32.2699997,-32.2700041 l 147.949002,0 c 17.8188,0 32.27211,14.4554241 32.27211,32.2700041 l 0,211.347407 c 0,17.83644 -14.45331,32.27213 -32.27211,32.27213 l -147.949002,0 c -17.83504,0 -32.2699997,-14.43569 -32.2699997,-32.27213 z"
     id="path23-8" />
  <path
     inkscape:connector-curvature="0"
     style="fill:#c0111e;fill-opacity:1;fill-rule:evenodd;stroke:none"
     d="m 100.79215,23.435733 c -2.415122,0 -4.175482,1.9812 -4.175482,4.22028 0,0.69603 0.17216,1.41605 0.57186,2.11208 L 145.72439,113.804 c 0.76553,1.3335 2.06023,1.97414 3.41137,1.97414 1.44286,0 2.87866,-0.72672 3.68652,-2.13254 l 48.58103,-84.108577 c 0.381,-0.66816 0.54681,-1.3402 0.54681,-1.98084 0,-2.13255 -1.77095,-4.09964 -4.18042,-4.10669 l -96.97755,-0.0138 z"
     id="path31" />
  <path
     inkscape:connector-curvature="0"
     style="fill:#000000;fill-opacity:1;fill-rule:evenodd;stroke:none"
     d="m 43.290058,233.28525 -11.63778,-3.1362 c -1.51236,-0.69144 -3.29001,-0.32808 -4.41643,0.88195 -1.26083,1.36878 -1.37125,3.43958 -0.25153,4.92478 l 26.27912,36.322 26.1105,-36.35728 c 1.02306,-1.36525 1.01953,-3.24909 -0.031,-4.5967 -1.00965,-1.29469 -2.74567,-1.79916 -4.28237,-1.23472 l -11.62368,3.11503 0.024,-59.28078 -20.15384,0 -0.024,59.36192 0.007,0 z"
     id="path33" />
  <path
     inkscape:connector-curvature="0"
     style="fill:#c0111e;fill-opacity:1;fill-rule:evenodd;stroke:none"
     d="m 63.581488,70.099763 11.72704,3.36586 c 1.53987,0.55456 3.27307,0.055 4.28907,-1.23684 1.0474,-1.34373 1.0474,-3.2385 0.0279,-4.59917 l -26.11402,-36.35974 -26.27913,36.33223 c -1.11618,1.47778 -1.00929,3.55882 0.25506,4.91948 1.11619,1.2058 2.90407,1.57092 4.4129,0.88195 l 12.09922,-3.23497 0,8.1788 19.61303,0 -0.031,-8.2476 z"
     id="path35" />
  <path
     inkscape:connector-curvature="0"
     style="fill:#ffffff;fill-opacity:1;fill-rule:evenodd;stroke:none"
     d="m 125.3003,45.119223 c -1.28835,-2.21862 0.30656,-5.01262 2.88395,-5.01262 l 42.05817,0.0138 c 2.55059,0 4.20864,2.74567 2.921,4.98157 l -21.02908,36.41126 c -1.28059,2.21861 -4.50145,2.25989 -5.79261,0.0277 L 125.3003,45.119443 z"
     id="path37" />
  <path
     inkscape:connector-curvature="0"
     style="fill:#c0111e;fill-opacity:1;fill-rule:evenodd;stroke:none"
     d="m 152.00382,171.30925 c 2.14137,2.58233 3.78531,5.55625 4.84012,8.74183 l 18.04105,-6.17714 c -1.33703,-4.54378 -3.59833,-8.83003 -6.58989,-12.48833 l -16.29128,9.92364 z"
     id="path39" />
  <path
     inkscape:connector-curvature="0"
     style="fill:#c0111e;fill-opacity:1;fill-rule:evenodd;stroke:none"
     d="m 71.739478,106.28702 -14.32455,12.585 c 2.80071,3.55635 5.9115,6.83366 9.33274,9.79699 l 11.7856,-15.01634 c -2.49096,-2.2359 -4.76462,-4.70253 -6.79379,-7.36565 z"
     id="path41" />
  <path
     inkscape:connector-curvature="0"
     style="fill:#c0111e;fill-opacity:1;fill-rule:evenodd;stroke:none"
     d="m 132.6963,151.49725 c 2.76577,1.46402 5.36927,3.2385 7.75052,5.26697 l 13.59959,-13.82536 c -3.43253,-3.41136 -7.46831,-6.17714 -11.86745,-8.18798 l -9.48266,16.74637 z"
     id="path43" />
  <path
     inkscape:connector-curvature="0"
     style="fill:#c0111e;fill-opacity:1;fill-rule:evenodd;stroke:none"
     d="m 142.8563,159.11725 c 2.36008,2.38477 4.48733,4.97416 6.35352,7.75052 l 16.50648,-9.57791 c -2.45886,-3.80295 -5.2705,-7.34131 -8.39611,-10.6045 l -14.46389,12.43189 z"
     id="path45" />
  <path
     inkscape:connector-curvature="0"
     style="fill:#c0111e;fill-opacity:1;fill-rule:evenodd;stroke:none"
     d="m 66.151478,94.601243 -17.90066,7.059087 c 1.37478,4.64044 3.55883,9.02264 6.45972,12.88803 l 15.57867,-11.54465 c -1.68134,-2.63208 -3.07305,-5.463827 -4.13773,-8.402467 z"
     id="path47" />
  <path
     inkscape:connector-curvature="0"
     style="fill:#c0111e;fill-opacity:1;fill-rule:evenodd;stroke:none"
     d="m 159.6203,197.21725 0,26.65236 19.29694,0 0,-26.65236 -19.29694,0 z"
     id="path49" />
  <path
     inkscape:connector-curvature="0"
     style="fill:#c0111e;fill-opacity:1;fill-rule:evenodd;stroke:none"
     d="m 82.915478,116.95288 -12.0957,14.75352 c 3.21063,3.47486 7.12788,6.31119 11.45152,8.26911 l 8.62965,-17.01095 c -3.01095,-1.49225 -5.73264,-3.52777 -7.98547,-6.01168 z"
     id="path51" />
  <path
     inkscape:connector-curvature="0"
     style="fill:#c0111e;fill-opacity:1;fill-rule:evenodd;stroke:none"
     d="m 63.626288,81.933703 -19.6095,0 c 0,4.82988 0.87524,9.71162 2.57351,14.24199 l 18.54482,-5.12974 c -0.91616,-2.98345 -1.27458,-5.9944 -1.50883,-9.11225 z"
     id="path53" />
  <path
     inkscape:connector-curvature="0"
     style="fill:#c0111e;fill-opacity:1;fill-rule:evenodd;stroke:none"
     d="m 158.0963,183.50125 c 0.92075,2.9845 1.50989,6.08541 1.74977,9.20397 l 19.38162,-0.16228 c 0,-4.82953 -0.88195,-9.64142 -2.58586,-14.17108 l -18.54553,5.12939 z"
     id="path55" />
  <path
     inkscape:connector-curvature="0"
     style="fill:#c0111e;fill-opacity:1;fill-rule:evenodd;stroke:none"
     d="m 159.6203,228.15939 0,43.96669 19.29694,0 0,-43.96669 -19.29694,0 z"
     id="path57" />
  <path
     inkscape:connector-curvature="0"
     style="fill:#c0111e;fill-opacity:1;fill-rule:evenodd;stroke:none"
     d="m 94.091108,124.06877 -7.65845,17.64948 c 4.24779,2.31069 8.88506,3.85939 13.670142,4.53319 l 2.85609,-19.177 c -3.052242,-0.67028 -6.039212,-1.67922 -8.867782,-3.00567 z"
     id="path59" />
  <path
     inkscape:connector-curvature="0"
     style="fill:#c0111e;fill-opacity:1;fill-rule:evenodd;stroke:none"
     d="m 119.99841,147.94125 c 3.33834,0.31044 6.60436,1.25941 9.60755,2.76577 l 8.382,-17.13794 c -4.14866,-2.27189 -8.77358,-3.71122 -13.47646,-4.17336 l -4.51309,18.54553 z"
     id="path61" />
  <path
     inkscape:connector-curvature="0"
     style="fill:#c0111e;fill-opacity:1;fill-rule:evenodd;stroke:none"
     d="m 105.26713,146.92525 c 3.34855,0.0178 6.68689,0.34572 9.97019,1.00189 l 4.90926,-18.46439 c -4.41995,-0.94545 -8.91928,-1.45698 -13.44964,-1.56634 l -1.42981,19.02884 z"
     id="path63" />
  <path
     inkscape:connector-curvature="0"
     style="fill:#000000;fill-opacity:1;fill-rule:evenodd;stroke:none"
     d="m 104.76091,176.38925 0,24.51453 11.03805,0 0,-24.51453 -11.03805,0 z"
     id="path65" />
  <path
     inkscape:connector-curvature="0"
     style="fill:#000000;fill-opacity:1;fill-rule:evenodd;stroke:none"
     d="m 104.76091,247.50925 0,24.51453 11.03805,0 0,-24.51453 -11.03805,0 z"
     id="path67" />
  <path
     inkscape:connector-curvature="0"
     style="fill:#000000;fill-opacity:1;fill-rule:evenodd;stroke:none"
     d="m 104.76091,211.94925 0,24.51453 11.03805,0 0,-24.51453 -11.03805,0 z"
     id="path69" />
</svg>
