<?xml version="1.0" encoding="UTF-8" standalone="no"?>
<svg
   xmlns:dc="http://purl.org/dc/elements/1.1/"
   xmlns:cc="http://creativecommons.org/ns#"
   xmlns:rdf="http://www.w3.org/1999/02/22-rdf-syntax-ns#"
   xmlns:svg="http://www.w3.org/2000/svg"
   xmlns="http://www.w3.org/2000/svg"
   xmlns:sodipodi="http://sodipodi.sourceforge.net/DTD/sodipodi-0.dtd"
   xmlns:inkscape="http://www.inkscape.org/namespaces/inkscape"
   width="179.97749"
   height="239.81876"
   viewBox="0 0 507.93653 676.82185"
   version="1.1"
   id="svg2"
   inkscape:version="0.48.4 r9939"
   sodipodi:docname="P-070-2-50.svg">
  <metadata
     id="metadata62">
    <rdf:RDF>
      <cc:Work
         rdf:about="">
        <dc:format>image/svg+xml</dc:format>
        <dc:type
           rdf:resource="http://purl.org/dc/dcmitype/StillImage" />
        <dc:title></dc:title>
      </cc:Work>
    </rdf:RDF>
  </metadata>
  <defs
     id="defs60" />
  <sodipodi:namedview
     pagecolor="#ffffff"
     bordercolor="#666666"
     borderopacity="1"
     objecttolerance="10"
     gridtolerance="10"
     guidetolerance="10"
     inkscape:pageopacity="0"
     inkscape:pageshadow="2"
     inkscape:window-width="1280"
     inkscape:window-height="1004"
     id="namedview58"
     showgrid="false"
     fit-margin-top="0.6"
     fit-margin-left="0.6"
     fit-margin-right="0.6"
     fit-margin-bottom="0.6"
     inkscape:zoom="2.2174225"
     inkscape:cx="75.341429"
     inkscape:cy="134.91161"
     inkscape:window-x="-8"
     inkscape:window-y="-8"
     inkscape:window-maximized="1"
     inkscape:current-layer="svg2"
     showguides="true"
     inkscape:guide-bbox="true" />
  <polygon
     points="315,545 235,375 315,205 395,375 "
     id="polygon10"
     style="fill:none;stroke:#ffffff;stroke-width:40"
     transform="translate(1307.7715,374.58971)" />
  <!-- draw the bicycle -->
  <!-- RIGHT -->
  <!-- LANE -->
  <!-- ONLY -->
  <path
     inkscape:connector-curvature="0"
     style="fill:#ffffff;fill-rule:evenodd;stroke:#000000;stroke-opacity:1;stroke-width:2.257778;stroke-miterlimit:4;stroke-dasharray:none"
     d="m 1.6933335,647.9999 0,-619.121351 c 0,-14.97238 12.1336195,-27.1852301 27.1335895,-27.1852301 l 450.259447,0 c 14.97189,0 27.15684,12.2128501 27.15684,27.1852301 l 0,619.121351 c 0,15.00012 -12.15672,27.12862 -27.15684,27.12862 l -450.259447,0 c -14.99997,0 -27.1335895,-12.1285 -27.1335895,-27.12862 z"
     id="path11" />
  <path
     inkscape:connector-curvature="0"
     style="fill:#000000;fill-rule:evenodd;stroke:none"
     d="m 7.3226135,647.52283 c 0,11.87451 9.6049395,21.48065 21.4870595,21.48065 l 450.293267,0 c 11.85336,0 21.50534,-9.60614 21.50534,-21.48065 l 0,-619.167901 c 0,-11.84769 -9.652,-21.4836401 -21.50534,-21.4836401 l -450.293267,0 c -11.88212,0 -21.4870595,9.6359501 -21.4870595,21.4836401 l 0,619.167901 z"
     id="path15" />
  <path
     inkscape:connector-curvature="0"
     style="fill:#ffffff;fill-rule:evenodd;stroke:none"
     d="m 17.289293,647.50616 0,-619.158151 c 0,-6.34584 5.15387,-11.52038 11.52384,-11.52038 l 450.294037,0 c 6.34295,0 11.52173,5.17454 11.52173,11.52038 l 0,619.158151 c 0,6.37116 -5.17878,11.52172 -11.52173,11.52172 l -450.294037,0 c -6.36997,0 -11.52384,-5.15056 -11.52384,-11.52172 z"
     id="path17" />
  <path
     inkscape:connector-curvature="0"
     style="fill:#000000;fill-rule:evenodd;stroke:none"
     d="m 164.91152,541.86481 2.15336,2.52941 c 8.76758,10.31523 24.59778,18.60551 42.10262,18.60551 21.16314,0 41.38225,-14.19931 50.939,-33.51742 15.8302,-31.9017 18.46227,-110.14429 18.46227,-118.1206 0,-68.24557 -13.83559,-101.07403 -15.48236,-104.63601 -10.87261,-23.63683 -30.47506,-37.62765 -53.59506,-37.62765 -11.41377,0 -22.72736,4.14126 -32.37724,11.176 -23.68162,17.24979 -29.42802,45.77504 -33.62079,93.43569 -1.78435,20.12244 -2.54247,38.87611 -2.54247,51.68547 0,38.31167 6.65269,77.81573 9.12954,86.21537 3.22474,11.11603 7.97878,21.75581 14.83113,30.25423 z"
     id="path19" />
  <path
     inkscape:connector-curvature="0"
     style="fill:#000000;fill-rule:evenodd;stroke:none"
     d="m 336.96303,541.86481 2.15689,2.52941 c 8.76404,10.31523 24.59425,18.60551 42.09909,18.60551 21.16314,0 41.38436,-14.19931 50.9517,-33.51742 15.83267,-31.9017 18.46439,-110.14429 18.46439,-118.1206 0,-68.24557 -13.83242,-101.07403 -15.47989,-104.63601 -10.87614,-23.63683 -30.49412,-37.62765 -53.61165,-37.62765 -11.41589,0 -22.72594,4.14126 -32.37794,11.176 -23.68164,17.24979 -29.4245,45.77504 -33.61727,93.43569 -1.78788,20.12244 -2.54599,38.87611 -2.54599,51.68547 0,38.31167 6.65269,77.81573 9.12953,86.21537 3.22475,11.11603 7.97912,21.75581 14.83114,30.25423 z"
     id="path21" />
  <path
     inkscape:connector-curvature="0"
     style="fill:#ffffff;fill-rule:evenodd;stroke:none"
     d="m 186.19884,508.51319 -1.67076,-3.66183 c -1.19556,-2.67053 -10.56957,-35.31659 -10.56957,-82.5112 0,-41.5537 6.58707,-77.9011 9.96315,-88.8739 5.50192,-17.9317 15.11371,-24.68387 25.35943,-24.68387 6.91092,0 13.84583,3.23497 18.7826,8.91927 4.89902,5.63282 11.52737,15.56492 15.18603,54.17363 1.36419,12.66825 2.03588,25.37531 2.03588,38.07884 0,39.1795 -5.97712,74.21387 -9.69081,86.74101 -5.74322,19.35692 -15.57902,26.59592 -27.18894,26.59592 -10.0457,0 -17.57327,-5.44689 -22.20701,-14.77787 z"
     id="path23" />
  <path
     inkscape:connector-curvature="0"
     style="fill:#ffffff;fill-rule:evenodd;stroke:none"
     d="m 358.2567,508.51319 -1.67569,-3.66183 c -1.19592,-2.67053 -10.57098,-35.31659 -10.57098,-82.5112 0,-41.5537 6.58707,-77.9011 9.9642,-88.8739 5.50333,-17.9317 15.113,-24.68387 25.35767,-24.68387 6.91091,0 13.84653,3.23497 18.78189,8.91927 4.90008,5.63282 11.52878,15.56492 15.18708,54.17363 1.36525,12.66825 2.04259,25.37531 2.04259,38.07884 0,39.1795 -5.98312,74.21387 -9.69787,86.74101 -5.73969,19.35692 -15.57514,26.59592 -27.18505,26.59592 -10.04712,0 -17.57539,-5.44689 -22.20384,-14.77787 z"
     id="path25" />
  <path
     inkscape:connector-curvature="0"
     style="fill:#000000;fill-rule:evenodd;stroke:none"
     d="m 110.4585,167.63668 11.6512,0 6.99699,-20.36057 21.80767,0 6.96912,20.36057 11.57923,0 -24.10214,-70.355881 -10.86555,0 -24.03652,70.355881 z"
     id="path27" />
  <path
     inkscape:connector-curvature="0"
     style="fill:#000000;fill-rule:evenodd;stroke:none"
     d="m 407.35632,167.63668 11.04547,0 0,-40.66575 16.32303,40.66575 16.21014,-40.48337 0,40.48337 11.02078,0 0,-70.355881 -11.049,0 -16.18192,40.597311 -16.29481,-40.555691 -11.07369,0 0,70.314261 z"
     id="path29" />
  <path
     inkscape:connector-curvature="0"
     style="fill:#000000;fill-rule:evenodd;stroke:none"
     d="m 46.390173,167.63668 11.05183,0 0,-40.66575 16.32267,40.66575 16.2232,-40.48337 0,40.48337 11.003487,0 0,-70.355881 -11.045117,0 -16.18157,40.597311 -16.2814,-40.555691 -11.0931,0 0,70.314261 z"
     id="path31" />
  <path
     inkscape:connector-curvature="0"
     style="fill:#000000;fill-rule:evenodd;stroke:none"
     d="m 269.61139,167.63668 11.04512,0 0,-40.66575 16.32302,40.66575 16.2091,-40.48337 0,40.48337 11.01725,0 0,-70.355881 -11.04477,0 -16.18158,40.597311 -16.2955,-40.555691 -11.07264,0 0,70.314261 z"
     id="path33" />
  <path
     inkscape:connector-curvature="0"
     style="fill:#000000;fill-rule:evenodd;stroke:none"
     d="m 68.831433,557.03073 33.375947,0 0,-281.68322 -22.727347,0 c -5.21582,8.24407 -11.24127,13.69095 -25.8311,17.87315 l 0,30.81302 15.1825,0 0,232.99705 z"
     id="path35" />
  <path
     inkscape:connector-curvature="0"
     style="fill:#000000;fill-rule:evenodd;stroke:none"
     d="m 342.72672,97.280799 0.0968,51.008141 c 0.78881,11.18623 11.02078,20.95324 23.18738,20.95324 12.94694,0 23.34683,-9.77724 23.85483,-23.27523 l 0,-48.644531 -10.80558,0 0,48.475911 c 0,6.6421 -5.88433,12.5229 -12.67884,12.5229 -4.15219,0 -8.3185,-2.09479 -10.63977,-5.55695 -1.36525,-2.01542 -2.08317,-4.09646 -2.17983,-7.2898 l 0,-48.193681 -10.83485,0 z"
     id="path37" />
  <path
     inkscape:connector-curvature="0"
     style="fill:#000000;fill-rule:evenodd;stroke:none"
     d="m 178.90551,167.63668 12.21282,0 11.46881,-23.73665 11.4688,23.73665 12.21282,0 -17.56305,-36.40102 16.42287,-33.913241 -12.24069,0 -10.34203,21.204421 -10.20445,-21.246041 -12.17154,0 16.29551,33.954861 -17.55987,36.40102 z"
     id="path39" />
  <path
     inkscape:connector-curvature="0"
     style="fill:#ffffff;fill-rule:evenodd;stroke:none"
     d="m 132.80663,136.37246 7.20372,-21.10811 7.14869,21.10811 -14.35241,0 z"
     id="path41" />
  <path
     inkscape:connector-curvature="0"
     style="fill:#000000;fill-rule:evenodd;stroke:none"
     d="m 239.76321,167.63668 10.94846,0 0,-70.355881 -10.94846,0 0,70.355881 z"
     id="path43" />
</svg>
